<svg xmlns="http://www.w3.org/2000/svg" viewBox="0 0 457.8 629.24"><defs><style>.cls-1{fill:#fff;}</style></defs><title>Asset 1</title><g id="Layer_2" data-name="Layer 2"><g id="Final"><path class="cls-1" d="M259.6,255.84c0-.1-.1-.1-.1-.2A.31.31,0,0,0,259.6,255.84Z"/><path class="cls-1" d="M264.6,541.84v-5.6c0-1,0-2.4-.9-2.4H225.8a2,2,0,0,0-1.3,1.5V586c0,.5.8.7,1.3.7h37.9c.8,0,.9-.6.9-1.7v-6.4c0-1,0-1.9-.9-1.9H236.9c0,.5.4.5.3,1.1-.8.1-2.8-.2-2.2,2-1.5-.4-1.2-2.2.1-3h-2.5v-12h9.6c-.4-.2-1.2.1-1-.7.7-.1,1.3-.1,1.2.7h5.1c.2-.3.3-.2.3,0h15c.8,0,.8-.3.8-1.4v-3.6a2.1,2.1,0,0,1-1.8.6,1.61,1.61,0,0,1-.3-1.1c.6-.5,1.2,0,2.1,0v-.5c0-1,0-2-.8-2h-8.3c-.1.2-.2.3-.6.2v-.2h-13c.1.1.1.2.3.2-.2.8-.6-.3-1.1,0,0-.1.2-.2.3-.2h-5.5c-.5,1.1-2.1.2-3.2.8-.5-1.4.8-.6,1.6-.8h-.7v-12.9h31.1c.8,0,.9-.1.9-1.1v.1c-.3-.1-.5.1-.3-.9C264.4,541.84,264.5,541.84,264.6,541.84Zm-1.1,37.7c0-.9,1.1.3,0,0Zm-2.6.6c-.3.5-.9.6-1.7.6C259.3,579.94,260.2,580.14,260.9,580.14Zm-5.6,3.3h.6v.6h-.6Zm-1.4-3.6h.6v.6h-.6Zm-4.8,3.6c.1-.8,1.2.3,0,0Zm-2.5.9c.6.2.9,1.9-.3,1.7C246.1,585.14,246.8,585.14,246.6,584.34Zm-9.9-2.3c.1-.8,1.2.3,0,0Zm25.6-20.2c-.1-.2.2.1,0,0Zm-3.1,1.4a2.86,2.86,0,1,0-.1.4C259.2,563.54,259.2,563.44,259.2,563.24Zm-4.5-1.4h.6v.6h-.6Zm-11.2,1.4a.87.87,0,0,1-.8.6C242.8,563.44,243,563.14,243.5,563.24Zm-2.5-4c-.2.6-1,1-1.4.6C239.6,559.24,240.3,559.24,241,559.24Zm-1.5,3.7c.7-1.1.5.9,0,0Zm-12.6-1.1c-.1-.2.2.1,0,0Zm-2,12.1c-.2-.8.6-.6.6-1.1C225.8,572.64,225.6,574.14,224.9,573.94Zm.6-9.3c0-.9,1.1.2,0,0Zm1.1,2.8c.6-.1.9.1.8.6h-.8Zm1.1,17.4c-.7-.1-.6-.8-.3-1.1A.6.6,0,0,1,227.7,584.84ZM228,566c.4-.4,1.2-.3,2-.3C229.9,566.24,227.9,567,228,566Zm2.8-25.7c.3-.5.5-1,1.4-.8A1.15,1.15,0,0,1,230.8,540.34Zm10.4.9c.2-.4.4-.9,1.1-.8C242.4,541.14,241.8,541,241.2,541.24Zm9-2c.1-.9,1.2.3,0,0Zm4.8-1.7c-.9-.7,1.5-.7,0,0Zm7.6,5.1c.1-.9,1.2.2,0,0Zm.6-5.4h-.6a.6.6,0,0,0-.3-.6C262.3,536.24,264.1,536.74,263.2,537.24Zm.6,0v-.6h.6v.6Z"/><path class="cls-1" d="M186.9,460.84H179c-.7,0-2.3.9-2.3,1.7V515c0,.8,1.6,1.7,2.3,1.7h7.9c.7,0,.8-.9.8-1.7v-5.2l12.1-13.7,9.3,11c.2-.3.8.3.2.3l-.1-.1,3,3.6a6.39,6.39,0,0,1,.7-.2c.2.5-.1.6-.4.6l-.3-.4,4.2,5a1.89,1.89,0,0,0,1.3.7h5.7a1.79,1.79,0,0,1,1-.6,1.42,1.42,0,0,1,.2.6H227c1.4,0,2.2-2.3,1.1-3.5l-20.9-24.8,2.3-2.7-.3.4h-.7v-.3h1.2l5.6-6.5-.2.1a1.49,1.49,0,0,1-.7-.3c-.1-.8,1-.3,1.1-.9.2,0,.2.2.3.3l.8-.9h-.5c.1-.4.4-.6,1-.6l-.1.1,10.3-12.9c1.1-1.2.4-3.4-1.1-3.4l-9.9.1a2.39,2.39,0,0,0-1.4.5l-27.5,33v-31.8C187.7,461.84,187.6,460.84,186.9,460.84Zm-10,43.3c.1-.7,1.2-.2,1.4,0C178.2,504.74,177.1,504.24,176.9,504.14Zm8.7-14.7c.1-.8,1.2.3,0,0Zm-1.7-18.6c0,.6-.2.9-.8.8C183,471.14,183.3,470.84,183.9,470.84Zm0,18.1c.2.1-.1-.2,0,0Zm-.8-2.9c.7-1.1.4,1,0,0Zm-2-17.4c.4-.9,1.5.3,0,0Zm-1.4.6c.4-.9,1.5.3,0,0Zm.6,37.7a.93.93,0,0,1,1.4-.3C181.7,507.24,180.7,506.74,180.3,506.94Zm.3,2.2c.4-1.3,2-1.4,3.1-2C183.4,508.64,181.8,508.64,180.6,509.14Zm3.1-2.2c-.1-.6.4-.5.8-.6A.76.76,0,0,1,183.7,506.94Zm.8-6.2c.1-.9,1.2.2,0,0Zm1.2-13.8v.6C184.7,487.74,185.7,485.94,185.7,486.94Zm-.3,20.5c.2-.4.6-.5,1.1-.6C186.8,507.74,185.9,507.44,185.4,507.44Zm1.1-18.3Zm-.3-18.3c.5-.4.6-1.3,1.4-1.4A1.27,1.27,0,0,1,186.2,470.84Zm40.5,43.7Zm-3.1-5.4h.8c-.3.3-.1,1-.8.8Zm0,5.1c.7-1.1.4.9,0,0Zm-1.9-2.8c0-.9,1.1.2,0,0Zm-2,3.1c.5-1,.9.9,0,0Zm-3.9-9.9c0-.8,1.1.3,0,0Zm-.3,3.7c.9-.7-.7.9,0,0Zm-1.7,1.9c0-.8,1.1.3,0,0Zm5.6-36.5c.4-1,.7,1.1,0,0Zm-.8-.6c.3.9-.9.4-1.4.6C217.2,473,217.9,473,218.6,473.14Zm-2.6,2.5h0l-.2.2C215.9,475.84,215.9,475.74,216,475.64Zm-4.5,4.8c.6-.1.9.2.8.8C211.6,481.44,211.4,481.14,211.5,480.44Zm.9-4.5c.1.8-1,.3-1.1.8C210.4,476.34,211.6,475.64,212.4,475.94Zm-4,27.3c.4-.8,1.5.3,0,0Zm.6,2.7c.1,0,.2-.1.3-.1s.2-.1.3-.1A1.07,1.07,0,0,0,209,505.94Zm1.8-.8.4.2a.77.77,0,0,1-.3-.1c0-.1,0-.1-.1-.1a.37.37,0,0,0-.3-.1A.37.37,0,0,1,210.8,505.14Zm-.1,1.5c-.1.7-.8.6-1.1.3C209.6,506.24,210.3,506.24,210.7,506.64Zm-.9-11.3c.1,1.4-.8.2-1.1.8C207.9,495.84,209.1,495,209.8,495.34Zm-2.2,4.8a1,1,0,0,1-1.1,1.1C206.6,500.64,206.6,499.94,207.6,500.14Zm-1.4-21.4c0-.8,1.2.3,0,0Zm0,1.1h0l-.2.2S206.1,480,206.2,479.84Zm-1.4,3.1c.3-.8,1.5.3,0,0Zm0-5.6c-.1.4-.8.1-.8.6C203.1,477.54,204.4,476.64,204.8,477.34Zm-1.4,6.2c0-.8,1.1.3,0,0Zm-5.7,4.8c-.4.8-3,.8-2.8-.6A7.27,7.27,0,0,1,197.7,488.34Zm-1.9,2.5c0,.5-.9.2-.8.8C194.2,491.44,195.1,490.54,195.8,490.84Zm-4,9.3Zm-.3.6Z"/><path class="cls-1" d="M426.3,140.14a3.55,3.55,0,0,1-.9.4A3.55,3.55,0,0,0,426.3,140.14Z"/><path class="cls-1" d="M457.4,95.24v0Z"/><path class="cls-1" d="M343.9,73.94c-.1-.1-.2-.3-.3-.4h0C343.8,73.64,343.8,73.84,343.9,73.94Z"/><path class="cls-1" d="M280,569.74h20.4l9.6,15.9a4.37,4.37,0,0,0,.6,1,1.48,1.48,0,0,0,.7.1c.1-.6.8-.5,1.1-.2,0,.1-.1.1-.2.2h7.2c.6,0,.9-.1,1-.7a1.32,1.32,0,0,0-.3-1.1l-4.3-6.5.4.5c-.1,0-.3.1-.3,0v-.5l-6.2-9.3a9.29,9.29,0,0,0,6.6-4.8c1.4-2.5,1.6-5.9,1.6-10.2v-4.3c0-5.1-.5-9.3-2.6-11.9a10.31,10.31,0,0,0-7-4,4,4,0,0,1,.3,1.7c-.5-.1-.5.3-.8.3s.5-1,.3-2h0a16.6,16.6,0,0,0-2.4-.2h-7.2a1.76,1.76,0,0,1,.5.4c-.6.8-1.1,1.6-2.3,1.7a1.81,1.81,0,0,1,1.1-2.1H283.9a6.07,6.07,0,0,1,1,.7c-2.5-.7-2.9.4-4.8.8a2.45,2.45,0,0,1,1.1-1.6H273c-1.2,0-2.3,1.4-2.3,2.9v48.7c0,1.1.9,1.4,1.8,1.4h6.6c.9,0,.6-.3.6-1.4v-15.5Zm35.2,11.5c-.2.3-.2.4-.3.4C315,581.54,315.6,580.54,315.2,581.24Zm-.3,3.9a.87.87,0,0,1-.8.6A.76.76,0,0,1,314.9,585.14Zm-1.4-2.5c.1-.9,1.2.3,0,0Zm-1.9-7.9c.1.6-.4.5-.8.6C310.8,574.94,311.1,574.74,311.6,574.74Zm0,1.7c.1.6-.4.5-.8.6C310.8,576.64,311.1,576.44,311.6,576.44Zm-40-21.7c-.5-.1.7-1,1.4-.8C272.7,554.44,272,554.44,271.6,554.74Zm.6-7a.87.87,0,0,1,.8-.6C273.1,547.74,272.6,547.74,272.2,547.74Zm11.8,19.4c-.6-.1-.1-1.3.6-1.1C284.8,566.74,284,566.54,284,567.14Zm1.4-1.7c0-.8,1.2.3,0,0Zm1.1,2.8c.1-.8,1.2.3,0,0Zm.3-.5c-.5-.5.1-1.1.8-1.1C287.5,567.14,287.5,567.84,286.8,567.74Zm9.8-5.4c-.8-.3,0-1.2.8-.8C297.6,562.14,296.7,561.84,296.6,562.34Zm2,3.7c.7-1.1.4.9,0,0Zm-.8-4.2c-.4-1,1-.2.8-.8C299.7,561.24,298.8,562,297.8,561.84Zm2.7,8.1-.1-.2C300.6,569.34,301.2,570,300.5,569.94Zm.8,1.3-.1-.2h.3Zm5.8-10.6c0-.8,1.1.3,0,0Zm1.1,8.5c.4-.8.2.7-.6.3C307.1,569.14,307.8,569.14,308.2,569.14Zm-.6,3.1c.4-.9,1.5.3,0,0Zm.3,6.4c-.7-.2-.1-1.4.6-1.1C308.7,578.34,307.9,578.14,307.9,578.64Zm3.4-17.4c.6-.1.7.2,1.1.3C312.1,562.14,311.2,562.24,311.3,561.24Zm-1.4-1.4c.9-.8,1.6-1.8,3.1-2C312.6,559.64,311.8,559.44,309.9,559.84Zm2.2-10.7Zm2.6-4.5c.9-.7-.7.9,0,0Zm1.1,15.5c-.4.6-1.3.6-2,.8-.2-.8.4-.7.3-1.4C314.9,559.44,315,560.14,315.8,560.14Zm-2-11.3c-.6.9-1.8-.3,0,0Zm-.5,3.9h-.8C312.4,551.74,313.5,551.74,313.3,552.74Zm-.9-13.7a.87.87,0,0,1-.8.6C311.7,539.24,311.9,538.94,312.4,539Zm-.6,1.9c-.3.3-.1,1-.8.8C311,541.24,311.2,540.94,311.8,540.94Zm-1.6,5.1c.8-1,.9.9,0,0Zm.5-3.4c-.2.4-.4.9-1.1.8A1.11,1.11,0,0,1,310.7,542.64Zm-1.9,4.8c.1.2-.2-.1,0,0Zm-1.5-11.3c1-.4.2,1,.8.8a3,3,0,0,1-2.3.6C306,536.64,307.6,537.44,307.3,536.14Zm-.5,7.1c.9.4-.9.3-.6,1.1-.4-.1-.1-.8-.6-.8C305.7,542.54,306.9,544,306.8,543.24Zm-4.2,1.4c0-.9,1.1.3,0,0Zm-7.1-3.4c.1-.8,1.2.3,0,0Zm-.3-6.2c.1-.8,1.2.3,0,0Zm-2.2,3.1c0-.8,1.2.3,0,0Zm-.6.9c.3.5,1,.5.8,1.4C292.4,540.54,292.4,539.84,292.4,539Zm-2.2.5c-.3.8-.9,1.2-1.1,2-.4-.2-.9-.4-.8-1.1C289.6,540.84,289.3,539.54,290.2,539.54Zm-4.5-3.6a1.91,1.91,0,0,0-.3.8c-.4-.1-.4-.5-.8-.6C284.6,535.84,285.3,535.94,285.7,535.94Zm-1.7.2c-.8.9-2.1.4-3.7.8C280.6,535.74,283.1,535.14,284,536.14Zm-5.9-1.9c0-.9,1.1.2,0,0Zm0,4.2c0,.6-.7.6-1.4.6C276.7,538.34,277.4,538.44,278.1,538.44Zm-3.4,3.4c.1-.9,1.2.2,0,0Zm.3,14c-.2-.6.5-.4.6-.8C276.2,555.14,275.6,556.14,275,555.84Zm3.4,27.1c0-.9,1.1.2,0,0Zm-1.7-8.2c.4-.7,1.5-.8,2.3-1.1C278.3,574.14,278.1,575,276.7,574.74Zm1.4-7c0-.9,1.1.2,0,0Zm0-16.9c0-.7,1-.7,1.4-.3C279.5,551.14,278.5,550.64,278.1,550.84Zm.8-4.2c.4-.4.6-1,1.2-1.3.2-.4,1-.6,1.5-.6h22.5c.6,0,1,.1,2,.2v-.2h0v.3a3.09,3.09,0,0,1,1.9,1.3c.9,1.1,1.1,2.7,1.1,5v3.2c0,1.9,0,3.2-1,4.2h1.3c.3,1-.3.4-1.3.5v.1c-.9,1.1-1.9,1.4-4,1.4h-16c.1.1,0,.3-.7.2,0-.1.1-.1.1-.2H280v-14.5A1.6,1.6,0,0,1,278.9,546.64Z"/><path class="cls-1" d="M388.6,136.74c0,.1,0,.1.1.2v0A.31.31,0,0,0,388.6,136.74Z"/><path class="cls-1" d="M198,544.74h20.1c.9,0,.9-.2.9-1.4V536c0-1.1,0-2.3-.9-2.3h-3.8c-.8.9-2.7.1-3.4,1.6-.4-.7-.1-1.2.5-1.6H170.7c-.9,0-1.6,1.2-1.6,2.3v7.4c0,1.2.7,1.4,1.6,1.4h18.4v40.6c0,1.1,1.1,1.4,2,1.4h2.6s-.1-.1-.1,0h2.6c.3-.4.8-.5.9-1a1.91,1.91,0,0,0,.8.3,2,2,0,0,1-1,.8h.9c.9,0,.3-.3.3-1.4v-40.8Zm19.8-.1Zm-3.3-4.8c-.2-.1.1.2,0,0Zm-.9.8c.9-.3.4.9.6,1.4C213.2,542,213.4,541.34,213.6,540.64Zm-44.2-4.2c.1-.8,1.2.3,0,0Zm.9,0c-.2-.1.2.2,0,0Zm5.9,3.7c0-.9,1.1.3,0,0Zm3.4-1.1c.7-1.2,2.4,0,1.7-1.7,1.2.3,1.1-.6,2-.6C182.4,537.94,181.6,539.14,179.6,539Zm29.8-.6Zm-1.1,1.1h.6v.6h-.6Zm-10.2-2.2a1,1,0,0,1-1.1,1.1A1,1,0,0,1,198.1,537.34Zm-1.1,12.6c-1.9.3.2-1.8,0,0Zm-2.8,6.2c.9-.7-.7,1,0,0Zm0-5c-.1.5-.1,1.2-.8,1.1C193.5,551.74,193.5,551,194.2,551.14Zm-2.3-8.2c1.1-1,1.5.8,0,0Zm-.2,27.6c.2-.4.4-.9,1.1-.8C192.8,570.44,192.1,571,191.7,570.54Zm-1.7-1.4c.7-.5.3-.4.3-1.4a2.77,2.77,0,0,1,2.5-.3C192.5,568.64,191.3,568.94,190,569.14Zm2.5-19.7c.7-1.1.4.9,0,0Zm.8,36.3a15.55,15.55,0,0,0,.8-2.3c.6.2.1,1.4,1.1,1.1A2,2,0,0,1,193.3,585.74Zm2.6-45.6Zm.3,38.5c-.6-.6.6-1.7,1.7-1.4C197.4,577.94,196.3,577.84,196.2,578.64Z"/><path class="cls-1" d="M59.1,497.94c.1.3,0,.4-.2.5v-.5a45.07,45.07,0,0,0,1.3,7.4,17.16,17.16,0,0,0,3.4,6.6,11.83,11.83,0,0,0,5.6,3.6,28.55,28.55,0,0,0,8.3,1.2H95.9a27.83,27.83,0,0,0,8.2-1.2,11.41,11.41,0,0,0,5.5-3.8c1.4-1.7,2-3.8,2.6-6.5.6-2.4.4-5.3.4-8.7-.1,0-.1,0-.2-.1l.2-.2v-33.5c0-1.2.7-2-.3-2h-7a2,2,0,0,0-1.8,2v31.6a39.45,39.45,0,0,1-.2,5.2,8.42,8.42,0,0,1-1.3,3.3,4.94,4.94,0,0,1-2.5,1.6,15.87,15.87,0,0,1-4,.3H77.8a12.67,12.67,0,0,1-4.1-.3,4.86,4.86,0,0,1-2.6-1.5,8.53,8.53,0,0,1-1.7-3.3,23.36,23.36,0,0,1-.7-5.2v-31.6c0-1.2.2-2-.8-2H61a2.36,2.36,0,0,0-2.3,2v32.8a17,17,0,0,0,.1,2.3Zm50.1,7.8c-.5-.3-.6-.7-.3-1.1A.64.64,0,0,1,109.2,505.74Zm3.1-32.3c-.2.4-.6.5-1.1.6C111.2,473.44,111.6,473.34,112.3,473.44Zm-2.3,20.8c-.4.3-.7.8-1.4.8C108.6,494.34,109.3,494.24,110,494.24Zm-1.4,3.1c.3-.9,1.5.3,0,0Zm-1.1-17.2c.3-.8,1.5.3,0,0Zm-.9,7.3Zm-1.1,3.1c.1.7-.6.7-1.1.8C104.3,490.64,104.8,490.54,105.5,490.54Zm-2.5,17.2Zm-5.9,5.4c0-.9,1.1.2,0,0Zm-1.4-6.5c.3-.9,1.4.3,0,0Zm-5.4,9.6c.6-.1.9.1.8.6h-.8Zm-5.1-4.3c.6-.1.9.1.8.6h-.8Zm-.8-2.5c-.1.5-.5.6-1.1.6C83.3,509.54,83.8,509.34,84.4,509.44Zm-6.2,4.2a3.29,3.29,0,0,1-2.5.8C76.2,513.84,77.3,513.84,78.2,513.64Zm-9-15Zm-5.3-7.8c-.7.9-1.9-.3,0,0Zm.2,16.1h-.6v-.6h.6Zm2.6-7.1c0-.8,1.1.3,0,0Zm-.3-34.6c0-.8,1.2.3,0,0Zm1.1,32.1c.1.7-.6.7-1.1.8C66.3,497.44,66.8,497.24,67.5,497.34Zm-1.4,2.8c.9-.7-.7,1,0,0Zm-1.4-13.2h.6v.6h-.6Zm-.3-6.8h-.6a.27.27,0,0,0-.3-.3C63.5,479.34,64.9,479.44,64.4,480.14Zm-.5-12.6c-.9.2-.5-.8-1.4-.6C62.7,466.34,64.2,466.64,63.9,467.54Zm-2,5.9c0-.9,1.1.2,0,0Zm1.1,34c-.1.5-1.6.1-1.4-.6C62.1,507,62.3,507.54,63,507.44Zm-2.5-32.6c0,.8-1.2.5-1.1-.3C59.9,474.44,60.1,474.74,60.5,474.84Zm-1.2,12.4c-.1-.2.2.2,0,0Z"/><path class="cls-1" d="M269.1,284.84a23.93,23.93,0,0,0-2.1-1.3,9.89,9.89,0,0,0-2.4-.9,16.21,16.21,0,0,0-4.8-.6,21.19,21.19,0,0,0-4.4.5l-.6.1-.2.1a34,34,0,0,0-5.2,3.1,28.52,28.52,0,0,0-4.4,4.1,32.07,32.07,0,0,0-3.4,4.8,34.29,34.29,0,0,0-2.3,5.2,48.56,48.56,0,0,1,4.1-3.8c.5-.4,1-.8,1.6-1.3,4.7,2.5,11.2,4.4,13.3,4.4,2.5,0,8.8-5.8,11.7-8.7l2.4-2.2A15.61,15.61,0,0,0,269.1,284.84Zm-23.4,6.5v-.6c.6-.1.9.1.8.6Zm6.8.8c.2-.4.6-.5,1.1-.6C253.9,292.44,253,292,252.5,292.14Z"/><path class="cls-1" d="M139.7,471.74h28.5c.9,0,1.2,0,1.2-1.2v-7.8c0-1.2-.2-2-1.2-2H139.3A25.37,25.37,0,0,0,131,462a13.11,13.11,0,0,0-5.6,3.7,16.94,16.94,0,0,0-3.6,6.5,36.61,36.61,0,0,0-1.5,9.7v13.6a38.12,38.12,0,0,0,1.5,9.8,16,16,0,0,0,3.5,6.6,11.83,11.83,0,0,0,5.6,3.6,28.55,28.55,0,0,0,8.3,1.2h28.9c.9,0,1.2-.8,1.2-2V507c0-1.2-.2-2.3-1.2-2.3H139.6a12.42,12.42,0,0,1-4.1-.3,4.52,4.52,0,0,1-2.6-1.5,8.61,8.61,0,0,1-1.8-3.3,22.78,22.78,0,0,1-.8-5.2v-11.2a23.76,23.76,0,0,1,.8-5.3,8.47,8.47,0,0,1,1.6-3.3c.2-.2.3-.4.5-.6h0c-.1-.5.3-.5.3-.8a.27.27,0,0,1,.3.3,5.07,5.07,0,0,1,1.6-.9A13.64,13.64,0,0,1,139.7,471.74Zm19.3-7.6c.8-.3.5.6.6,1.1h-.8C158.6,464.64,158.9,464.54,159,464.14Zm-1.4,3.4c.9-.7-.7.9,0,0Zm-2.3-5.4c.1-.8,1.2.3,0,0Zm-5.3-.5c-.1.5-.5.6-1.1.6C148.6,461.34,149.5,461.64,150,461.64Zm-7.1,4.2h.6v.6h-.6Zm16.1,39.4c.3.8-.6.5-1.1.6C157.9,505.24,158.3,505.14,159,505.24Zm-10.7,10.7a.87.87,0,0,1-.8.6A.7.7,0,0,1,148.3,515.94Zm-22.8-5.1c.3-.7,1.1-.7,2-.8A3.06,3.06,0,0,1,125.5,510.84Zm.8-14.6c.1-.7,1.2-.3,1.4-.8C128.6,495.84,127.1,496.44,126.3,496.24Zm2.3-22H128v-.6h.6Zm.5,37.2c-.2-.8.6-.6.6-1.1.4.1.2.7.3,1.1Zm2.6-2.3c.1.7-2,1.5-2,.3C130.1,509,130.9,509.14,131.7,509.14Zm2.2-43c.1-.9,1.2.2,0,0Z"/><path class="cls-1" d="M2.6,586.74H9.2c.9,0,.9-.3.9-1.4v-8.6a1.17,1.17,0,0,1-1,0c-.2-.8.4-.8,1-.8v-9c-.2.3-.7.3-1.3.3-.1-.8.8-.6,1.3-.8v-1.6h28v20.6c0,1.1,1.3,1.4,2.2,1.4h6.6c.9,0,.2-.3.2-1.4V565h0V536c0-1.1.7-2.3-.2-2.3H40.3a2.65,2.65,0,0,0-2.2,2.3v19.7H36.4a1.27,1.27,0,0,1-.6.1v-.1H23.3c0,.1-.1.2-.7.1a.1.1,0,0,1,.1-.1H10.2V536c0-1.1,0-2.3-.9-2.3H2.7c-.9,0-2.5,1.2-2.5,2.3v49.3C0,586.44,1.6,586.74,2.6,586.74Zm43.3-15.4h-.6v-.6h.6Zm0-32.1c.1.9-.9.6-1.4.8C44.6,539.54,45.2,539.34,45.9,539.24Zm-2.6,36.3c.1-.8,1.2.3,0,0Zm-3.6-4.2c.5.2,0,.5,0,.8C39.2,572,39.6,571.74,39.7,571.34Zm0,11.3c-.3,0-.2-.5-.3-.8C40.3,581.54,39.8,582.34,39.7,582.64Zm-1.2-20.3c.3,0,.2.5.3.8H37.1C37.3,562.64,38.4,563,38.5,562.34Zm-4.7-5.6a.87.87,0,0,1-.8.6C33,556.94,33.3,556.74,33.8,556.74Zm-8.8,6.5c-.1-.2.2.1,0,0Zm-5-5.4c1.1.3,0,1.5,0,0Zm-1.7-.5c-.1.4-.7.2-1.1.3C17.2,557.24,17.8,557.34,18.3,557.34Zm-2.6.2c.3.8-.6.5-1.1.6C14.7,557.64,15.1,557.54,15.7,557.54ZM5,578.64c.9-.7-.7.9,0,0Zm-2.2-19.4Z"/><path class="cls-1" d="M457.7,108.64a109.89,109.89,0,0,0-.2-12.7c-.2.1-.4,0-.3-.8a.37.37,0,0,1,.3.1c-1.2-15-4.9-31.6-8.2-34.1a3.61,3.61,0,0,0-3.7-.6c-2.3,1-2.5,3.6-2.7,4.9-.3,3-.5,6-.8,9-1.1,13.3-2.2,25.8-5.9,38.3-3.1,10.2-8,17.4-11,20.3.2-2.4.7-6,1.2-9.8h-.2c.1-.2.1-.3.3-.4v.2c.2-1.5.4-3,.7-4.4,3.5-23.4,9.5-62.5-3.3-86.1a133.36,133.36,0,0,0-8-12.2v.1c-.1.1-.2.1-.1-.1C409.1,11.14,400.6,1,397,.14a3.46,3.46,0,0,0-3,.5c-3.4,2.3-1.8,6.4,1.6,14.4,1.7,4.2,3.9,9.5,5.9,15.6a169.8,169.8,0,0,1,7.1,32.3,18.65,18.65,0,0,1,2.6-.3,9.23,9.23,0,0,1-2.5.9c2.8,25-1.8,42-3.8,47.7-34.5-4.5-47.3-29.7-47.9-30.9-3.8-6.9-29-37.7-34.4-37.7h0l-2.5.4-.9,1.8c-.9,1.9-.1,3.6,2.4,7.2v-.3h1.1c0,1-.4.8-.7.9-.1-.2-.3-.3-.4-.5.3.4.6.9.9,1.3,6.7,9.2,11.9,17.4,15.8,24,.3-.5,1.4-.8.7-1.6a1.5,1.5,0,0,1,1.4.3l-1.8,1.8c5,8.6,7.6,14.6,7.8,17-3.5,1.2-11.6-.6-25.3-4.7h0c-.1.1-.2.1-.4,0v-.1h0c-3.1-.9-6.5-2-10.2-3.2-13.2-4.2-33.2-15.1-47.7-23-19.6-10.7-22.2-12-24.8-9.8a3.74,3.74,0,0,0-1.1,4c2.3,6.8,27.4,24.2,31.6,26.7,36.1,22,86.9,34.7,98.4,37.4.1-.2.5-.6.5-.8.7.2.1.6-.2.9-.1,0-.1,0-.2-.1a16.5,16.5,0,0,0,2.3.5c6,1.7,10.6,3.8,13.9,6.5V129c.5.1,1.2.1,1.1.8h-.4a14.5,14.5,0,0,1,4.5,6.6c.3.1.4.4.4.8h-.2c2.3,8.5-3.1,20.6-15.9,36.2-.2-.6-.3-1.1-.5-1.7-.3-1-.6-2-.8-3-4.3-17-27.8-35.6-32.3-36.3a3.52,3.52,0,0,0-3.3,5.8c12.6,19.2,18,47.5,17.9,55.7-1.2,1.1-2.3,2.2-3.4,3.3-10.3-1.4-20.5-2.6-30.7-3.5h-.8c-2-.2-5-.5-7.6-.7-.7-19.6-1.3-23.2-3.7-24.8a3.4,3.4,0,0,0-3.5-.2c-1.8.8-2.7,2.7-3.7,7.7v-.1h0c.6-.4.2.1-.1.2-.6,2.9-1.1,6.9-1.8,12.4-.2,1.3-.3,2.6-.5,3.8-11.2-.7-22.4-1.1-33.5-1.2-.2-.3-.5-.6-.7-.9a4.8,4.8,0,0,0-3.6-1.2,2.8,2.8,0,0,0-2.8,2c-7,0-13.9.2-20.8.4h.2v.1h-.4c-9.5.3-18.9.9-28.3,1.7.4-2.6.8-5.1,1-6.7q.15-1,.3-1.8c.2-1.6.6-4.1,1.1-7.2.5-3.7,1.3-8.4,2-13.5,0,.2-.1.4-.1.7,0,.1-.1.1-.1.2-.8-.2-.3-.4-.3-1.1a.4.4,0,0,1,.5.1c2-13.4,4.5-28.8,5.6-32,.2-.7,1.1-4.4,1.9-8.9-.1,0-.1,0,0-.1,1.5-8.1,3-18.9,1.1-21.4a3.48,3.48,0,0,0-3-1.4c-6.9.4-16,12.3-36.2,95.4,0,.2-.1.3-.1.5-.4.1-.8.1-1.2.2-16.2-8.8-16.5-16.8-16.8-26.7,0-1.2-.1-2.5-.1-3.7-.2-3.5-.3-11.3-.4-21.2-.9-71.5-2.6-78.8-6.8-80.4a3.61,3.61,0,0,0-3.2.3c-.9.6-3.4,2-5.4,18.1-.4,2.8-.7,5.7-1,8.7a2,2,0,0,1,.8-.1c0,.5-.4.6-.9.6-1.7,16.6-2.8,34.1-3.7,50-.1,1.4-.2,2.7-.2,4.1h.9c0,1.1-.4,1.3-1,1.3-.8,12.3-1.6,24.9-2.7,31.8-2.2-8.8-4.1-27.5-3.4-41,.1-2.5,0-11.2-.2-19-.6-17.5-1.2-17.7-3.4-18.6l-2.3-.8-1.5,1.9c-1.1,1.3-1.5,3.6-2.9,12.9-.7,4.7-1.5,10-2.2,12.4-1.1,3.7-3,20.3-2.3,36.9.2.1.4.3.2.6h-.2c.5,10,2,19.9,5.3,26.9.4-.6,1.3.3.1.1a3,3,0,0,0,.4.8c2,4,5.4,7.7,9.7,11.1-13.2,2.7-26.9,5.9-40.2,9.6-.1.4-.8,1.3-1.6,1a.59.59,0,0,0-.2-.5l1.1-.3c.3,0,.5,0,.5-.1-3.9,1.1-7.8,2.2-11.5,3.3l-3.8.9v31.1a.78.78,0,0,1,.7-.3c.1.5-.3.5-.7.6v15.2c.3-.1.4-.4,1-.2.3.6-.5,1-1,.9v42.7h.2c.1.4,0,.5-.2.5v102.4c3,.5,5,1,9,1.5V308.84c0,.1-.1.2-.4.5-.7-.3-.6-1.3.4-1.1v-7.3h-.1c-.1-.3,0-.5.1-.5v-63.6h-.1a.35.35,0,0,1,.1-.2V223a74.87,74.87,0,0,0,8.1-2.3h-.1v-.4c1-.1.8.1.8.4,6.8-1.8,13.4-3,20-5h0v-.2c.2-.1.2-.1.2.1,3.3-.8,6.5-1.5,9.7-2.2a.1.1,0,0,0-.1-.1c.4-.6.5-.2.4,0h-.2c6-1.3,12-2.6,18-3.7.1,0,.3.1.4.1,2.1,1.2,4.3,2.4,6.5,3.5.2-.1.5-.1.8-.2a1.69,1.69,0,0,1-.2.5c-.1-.1-.3-.1-.4-.2a168.71,168.71,0,0,0,16.2,7.1c-2.5.4-5.1.9-7.6,1.3a.37.37,0,0,0,.3-.1v.1h-.5a449.37,449.37,0,0,0-54.8,12.9l-1.6.4a3.21,3.21,0,0,0,1.7.2c-.4,1.2-1.7.1-2.5,0l-1.1.3v29.3h.2c-.1.1-.1.3-.2.4v13.2a4.33,4.33,0,0,0,.5-.1c-.1.2-.3.5-.3.5h.8c-.3,1-.7.5-1.1.3v13.6h.2a.52.52,0,0,1-.2.4v29.8c.3.2.2.4,0,.5v89.9c5.5.6,9.2,1.1,13,1.6a1.49,1.49,0,0,1,.7-.3c-.1.1-.1.2-.2.4a.9.9,0,0,1,.5.1c2.4.2,5.4.4,7.5.5,37.4,2.5,70.1-3.6,102.3-19.2,24.2,29.4,49.5,99.6,49.5,99.6s-.9-9.4-3.2-22c-.1,0-.2-.1-.3-.2.1-.1.2-.2.3-.2a.37.37,0,0,0,.1.3c-2.8-15.1-7.6-34.7-15.3-48.9-14.3-26.3-16.6-45.4-14.1-48.4,3.8-4.5,23.4-9.6,28.5-13.3,7.5-5.5,14.7-17.2,14.7-17.2-20.7,6.9-42.3,11.4-61.8,14.4-9.8-1.4-19.9-1.2-28.4-1-6.2.1-12.1.3-14.4-.5l-.2-.1A61.8,61.8,0,0,1,175,355c.9-2.8,2-6.7,2.7-10.1v.2c-.2.2-.3.2,0-.2h.1c.8-3.2,1.2-5.8,1-6.3-.6-1.4-7.1,1-7.9,0-.6-.7-.4-6.3-.2-9.7a5.5,5.5,0,0,1,.9-.7c7.5-6,16.8-13.5,23-21.3,14-17.6,27.2-32.2,39.1-43.3a32.48,32.48,0,0,1,6.4-2.9l1.5-.5.6-1.5c1.6-4.3-1.7-9.4-2.4-10.4l-.3-.4-.4-.3c-1.5-1.1-5.1-3.4-9.8-6.3-.1-.1-8.8-5.4-16.1-9.5-10.4-5.9-18-9.8-26.5-12.6a15.87,15.87,0,0,1-2-.7,214.07,214.07,0,0,1-25.9-10.4,115,115,0,0,1-11.9-6.7c-6.4-4.2-10.9-8.3-13-12.3-3-5.8-4.4-15.1-4.9-24.1h.1v-1H129c-.8-14,.6-29.5,1.6-34.6.1,3.6,0,6.6,0,8.1-.2,4.5-.2,9.9.1,15.5.6-.6.9-1.5,1.9-1.7-.5.7-.4,2-1.9,1.7h0c.3,5.2.7,10.7,1.4,15.7,2.4,18.6,5.6,20.6,8.5,20.9a4,4,0,0,0,3.1-1c3.4-2.9,4.4-13.7,6.3-46.6,1.1-18.6,2.4-39.8,4.7-58.7a27,27,0,0,1,.4-2.8c1.3,16.7,1.7,47.1,1.9,64.1.1,10,.2,17.8.4,21.4.1,1.2.1,2.4.1,3.6.3,9.2.6,18.6,13.2,27.9a78.29,78.29,0,0,0,11.9,6.9l.5.2,3,1.4.5-1.9.5-1.9c.2-.9.7-2.7,1.3-5.2.2-.6.3-1.2.5-1.9,2.2-9.2,4.3-17.4,6.3-24.8,0,.1-.1.3-.1.4s-.2.1-.4,0c-.1-.4.2-.5.5-.5,10.3-38.9,16.7-54.2,20.3-60.1-.6,6.4-2.2,16.1-3.4,19.6-1.5,4.6-4.9,26.6-7.9,46.8-.5,3.1-.8,5.5-1.1,7.1l-.3,1.7c-.5,2.8-.9,5.6-1.2,8.3a69.72,69.72,0,0,0-.6,8.8,27.37,27.37,0,0,0,.6,6.1,17.21,17.21,0,0,0,4.1,7.3c10.7,12,37,17.6,45.9,17.7,3.8,0,4.4-3.3,5-6.8q.45-2.85,1.8-9c.2-1,.6-2.7,1-4.6.2-.9.4-1.9.6-2.9s.5-2.1.8-3.2c.1,1.9.1,4,.2,6.1.1,4.2.2,8.5.2,12.4a21.43,21.43,0,0,1-.8,3.4c-1.6,10-3.2,20.5-.8,26.8.4-.3.7-.8,1.1-.3a1.44,1.44,0,0,1-1,.6,7.6,7.6,0,0,0,4.1,4.5,19.77,19.77,0,0,0,19.3-1.1c5.4-3.5,9.1-9.4,9.1-14.7,0-6.2,4.1-19.8,7.3-30.1.1-.3.2-.7.3-1,1.5-4.8,2.8-9.2,3.6-12.3.2-.9.4-1.7.5-2.3.3-1.7.6-3.9,1-6.3l.3-2.1c0,.7.1,1.4.1,2.2.1,3,.2,6,.3,8.8V203c.1,4.8.3,8.8.4,12.2.7,16.7,1.4,18.4,3.8,19.5,4,1.8,7.5-.9,13.9-5.9,2.1-1.6,4.7-3.6,7.8-5.9.1,0,2.1-1.6,5.4-4.4,3.5-2.9,8.4-7.1,13.8-12.1,2.6-2.4,5.3-4.9,8-7.6l.7-.7.8-.8.1-1.2c.5-4.2-.9-14.9-4.3-27.2h0v-.1a136.24,136.24,0,0,0-8.2-22.2c7,6.3,15.2,15.6,17.4,24.1.3,1,.5,2.1.8,3.1s.6,2.1.8,3.1a1.07,1.07,0,0,1,.6-.2,2.77,2.77,0,0,0-.5.9h0a23.25,23.25,0,0,0,.8,3.6l1,7,4.7-5.3c9.1-10.2,15.3-19.2,18.9-27.2l-.6,1.2h0c0-.7,0-1.4.3-1.7.1,0,.2.2.3.5,3.5-7.8,4.3-14.6,2.6-20.4a20.07,20.07,0,0,0-5.7-9.1c-.4.2-.7-.1-1.2-.2a1.2,1.2,0,0,1,.5-.5,28.58,28.58,0,0,0-4.2-3.1c-.2.9-1.9.9-2.2.7.3-.7,1.1-.8,1.8-1a.52.52,0,0,0,.4.2,50.5,50.5,0,0,0-13.4-5.6c-.6-.1-59.7-13.3-98.9-37.2a187.35,187.35,0,0,1-17-12.2c1.6.9,3.2,1.7,4.8,2.6,5.8,3.2,12.5,6.8,19.2,10.3-.2-.1-.3-.2-.5-.2a.85.85,0,0,1,.6-.2c.1.2,0,.4-.1.4,10.4,5.4,21.2,10.5,29.6,13.2,26.3,8.4,36,10.6,41.9,7.1a4.87,4.87,0,0,0,2.4-3.4c.9-4.5-3.9-13.7-8.9-23v-.2h0V74a84.32,84.32,0,0,1,6.9,9.8c.6,1.2,14.1,27.9,50.2,33.8a.57.57,0,0,1,1.1.2c1.4.2,2.8.4,4.3.5l2.3.2,1-2.1c.6-1.4,14.9-34.4-2.4-87.5-2-6.1-4.1-11.4-5.9-15.6a179.24,179.24,0,0,1,14.3,19.1c-.1-.1-.2-.3-.3-.4a4.33,4.33,0,0,0,.1-.5c1-.2.5.9.3,1.1h0c.7,1.2,1.4,2.3,2,3.4,11.6,21.4,6.2,58.1,2.8,81.1h.3v1h-.4v-.5c0,.2-.1.3-.1.5-2.4,15.8-2.9,19.9-.2,22.1a4.69,4.69,0,0,0,4.7.7c.1,0,.2-.1.3-.1.1-.3.5-.4.9-.4,5.3-2.7,11.6-12.2,15.3-23.1a1.18,1.18,0,0,1-2,.3c-.1-.7,1.3.2.8-.8.2-.1.3.1.3.3s.5.2.8.3a11.77,11.77,0,0,1,.7-2,.76.76,0,0,0-.4.1,1,1,0,0,1,.5-.4c0,.1-.1.2-.1.3,0-.1.1-.3.1-.4,3.6-12.2,4.8-24.1,5.9-36.6,2.2,10.6,4,25.7,2.4,34.6-1.2,6.5-5.2,14.4-10.2,22.1a1,1,0,0,1,.2.7,1.06,1.06,0,0,0-.8.1c-.9,1.4-1.9,2.9-2.9,4.3a4.33,4.33,0,0,0,.5-.1c-.4-.3,0-.1.3,0a1.81,1.81,0,0,1-1.4,1c-1.8,2.5-3.6,5-5.3,7.3l.1-.1h.2a.63.63,0,0,1-.6.5c-5.1,6.6-9.9,12.1-12.7,15.1a434.7,434.7,0,0,1-33.3,31.3c-2.2,2-4.7,4.4-7.2,7-2.3,2.4-4.7,5-7,7.6-3.2,3.6-6.2,7.1-8.5,10a12.71,12.71,0,0,0-4.1-8l-.4-.4-.5-.2c-5.9-2.3-12.3,4.3-17.9,10.1-2,2-4.4,4.6-5.6,5.1-10.3,4.9-16.2,8.3-18.7,10.9a52.46,52.46,0,0,0-5.2,7.2c.2.1.2.3-.2.3h0c-.5.7-.9,1.4-1.4,2.2-1.3,2-3,4.7-3.8,5.8-5,1.4-10.8,7.6-12.5,9.8l5.1,4c2.3-2.9,6.6-6.7,8.8-7.4.2,5.7,3.7,12.6,9.1,13.5,6.9,1.3,8.5-9.6,10.2-6.4s-9,9-6.3,12.2,8.2.5,14.9-5,6.6-14.4,6.8-16.5c9.7-11.7,7.3-28.6,6-28.7s-2.5,7.1-4.5,11.9-13,17.1-16.3,20.5c-11.4-4.3-6.3-15-.9-22.4,2.6-1.5,6.3-3.5,11.8-6,2.1-1,4.4-3.4,7.3-6.4,2.1-2.1,8.1-8.4,10.4-8.6,1.3,1.5,1.6,3.7,1.4,6.1h.9a1.65,1.65,0,0,1-1,.8,48.8,48.8,0,0,1-2.8,10.3c-1.1,3.1-1.9,5.4-1.8,7.2.1,3.8-1.9,17.2-4.7,23.9-.4,1.1-1.9,2.6-3.9,4.2s-4.2,3.2-6.3,4.8c-3.1,2.2-6.3,4.6-9.2,7-5.5,4.4-10.3,9.1-12.3,14l.8.3h0l.8,1.4c23.7,40.3,33.6,88.3,34.9,119.9a199.19,199.19,0,0,1-2,31.5c0-.1.1-.2.1-.4a4.5,4.5,0,0,1,.8-.2v1.2h-.9c-.3,2-.7,5-1.1,7h.1v1h-.1c-.6,3-1.2,6.8-1.9,10.2l-.2.7c-9.2,16.9-10.7,29.7-48.7,59.1,4.8-1.8,9.1-3.6,13.1-5.5a.52.52,0,0,1,.4-.2c.1-.1.3-.1.4-.2l.1-.1c-.7-1.1-1.1.6-2,.3a1.14,1.14,0,0,1-.3-.8c.9-.7,2.2,0,3.4,0a.1.1,0,0,1-.1.1,5.36,5.36,0,0,1-1.1.5c23.9-11.5,33.8-24.4,37.9-32.5h-.1c0-.3.2-.3.3-.3h0a31.22,31.22,0,0,0,2-4.8c2.7,12.1,1.8,23.5-.5,34.7.6,0,1.2.2,1.3.8h-1.5c-.5,2.6-1.2,5.2-1.8,7.8a6.81,6.81,0,0,0-.2,1.5l3.7-2.3,3.6-2.4L373.2,513c-.1,0-.2-.1-.3-.1-.1-.3.5-.4.9-.3L397.3,498h-.2c0-.5.4-.3.5-.1l8-5c-.1,0-.2-.1-.4-.2a.87.87,0,0,1,1.5-.4l1.5-.9h-.3v-.7c0-.1.7,0,.8.2l-.4.3,12.6-7.8v-40.9h-1v-1h1v-206l-3-.9c-14.9-4-29.5-7.4-44.2-10.3,0,.6.2.9-.8.8v-.4h.7l.1-.2c-2.2-.4-4.4-1-6.5-1.4,3-3.6,6.7-8.2,10.7-12.6,5.9,1.1,11.8,2.2,17.7,3.4-.1,0-.2-.1-.3-.1a.66.66,0,0,1,.6.1c7,1.5,14,3,21,4.7a.75.75,0,0,1,.5.1h0c-.1,0-.1,0-.2-.1,5.6,1.3,11.2,2.8,16.8,4.2v43.9a.45.45,0,0,1,0,.5v180.7a.91.91,0,0,0,.3-.7c.6.6.2.8-.3,1.1v7.6c.5-.4.2,0,0,.2v5.7c.6-.5.9-1.4,1.7-.8-1,.5-.9,1.4-1.7,1.4V484a3.33,3.33,0,0,1,.3-.6c.8-.3.5.2.6,1.2h-.8V489h0v1.1s.1.1,0,.1v3.2L394,518.24c.3.3.2.4.4,1.4H393c.2,0,.2-.7.3-1l.3-.3-39.8,24.3h1.4c.2,1-1.8,1.5-1.4.1l-7.7,4.8c-.2,3.4.3,7,.1,10.6l45.8-28h-.3c0-.5.4-.3.5-.2l51.7-31.6v-7.8a.3.3,0,0,1,0-.4v-1.9h-.1c-.1-.3,0-.5.1-.5v-44.2c-.3.5-.8-.1-1.6,0a1.35,1.35,0,0,1,1.6-.3V428a2.62,2.62,0,0,1-1.3.6c-.1-.9.6-1,1.3-1.1V258a.78.78,0,0,1-.7.3c-.1-.5.3-.5.7-.6v-41.3l-3.3-.9c-1.3-.3-2.6-.7-3.8-1-.1.9-1,.9-1.4,1.5-.2.1-.3-.1-.3-.3s-.1-.3-.3-.3c.3-.4.8-.6.8-1.3a6.37,6.37,0,0,1,.7.2,9.31,9.31,0,0,0-1.4-.4v.6h0v-.8c-1-.2-1.5-.3-2.2-.4,0,0-.2.2-.3.2h-.6c.1,0-.1-.3-.3-.4V213c-5.1-1.3-10.3-2.6-15.4-3.8a1.61,1.61,0,0,0-.7.4c-.4-.2-.3-.4-.1-.6-10-2.3-20-4.4-29.9-6.3-1.9,1.9-4.1,4-6.2,6.2,2-2.2,4.1-4.3,6-6.2,1.3-1.3,2.5-2.4,3.7-3.5a453.78,453.78,0,0,0,33.8-31.7c2.5-2.6,6.2-6.8,10.3-11.9-.6,0-1-.2-.9-.8.6-.1,1,.1,1.1.6,0,.1-.1.1-.1.2,1.5-1.9,3.1-4,4.7-6.1a5.55,5.55,0,0,1-.6.8h-.6a1.2,1.2,0,0,1,1.2-.9c8.5-11.3,17.1-25.1,19.1-36a16,16,0,0,0,.8-4.8ZM320.3,44.74c.3-1,.8-.2,1.7-.3C321.6,44.84,320.7,45.14,320.3,44.74Zm12.1,22.5Zm6.2-1.7c.1.6-.4.5-.8.6A.7.7,0,0,1,338.6,65.54Zm-.3,6.8c.9-1.1,1,.8,0,0Zm1.5,7.6a.1.1,0,0,0-.1-.1C339.9,79.24,340.7,80,339.8,79.94Zm-118,28.4h.4a4.1,4.1,0,0,1-.1,1.1h-.3C221.8,109,221.8,108.74,221.8,108.34Zm-78.6,36.9c.4-.9,1.5.3,0,0Zm-20.1,28.3v-.3c0,.1.1.1.2.1C123.2,173.44,123.2,173.54,123.1,173.54ZM90.3,379.94c.1-.8,1.2.3,0,0Zm-1.1-142.7c0,.9-1,.7-1.7.8C87.6,237.44,88.6,236.34,89.2,237.24Zm-.6,43.6c-.5-.4.1-1.1.3-1.7C89.8,279.24,89.7,281.24,88.6,280.84Zm.3-7c.1-.8,1.2.3,0,0Zm-.3-5.6c-.1-.6.4-.5.8-.6C89.4,268,89.1,268.24,88.6,268.24Zm-2.5,16.9h.6v.6h-.6Zm-.6-34.9c.1.6-.4.5-.8.6C84.8,250.44,85.1,250.14,85.5,250.24Zm-3.1,121.3c.4-.9,1.5.3,0,0Zm.3-76.9a.87.87,0,0,1,.8-.6C83.4,294.44,83.2,294.74,82.7,294.64Zm.6-39.7c.2-.2.4-.8,0-.8.1-.7,1.2-.2,1.4,0C84.8,255,84.1,255,83.3,254.94Zm.6,89.8c0-.8,1.1.3,0,0Zm.2-60.8v-.8h.8C85,283.74,84.8,284,84.1,283.94Zm.9,22c1-.4,1,1.3,0,.8ZM86.1,372c.1.6-.4.5-.8.6A.78.78,0,0,1,86.1,372Zm-.3,28.2c1.2.1-.3,1.6,0,0Zm0-35.5c.5-.1.5.3.8.3C86.8,365.64,85.4,365.44,85.8,364.74Zm.3-53.7c-.3-.8.6-.5,1.1-.6C87.2,310.94,86.7,311,86.1,311Zm1.4-15c.7,0,.8.5,1.7.3a2,2,0,0,1-2,1.1C87,296.74,87.6,296.74,87.5,296Zm1.7-1.9c1.3.1-.1,1.5-1.1,1.1C87.9,294.34,89.5,295.14,89.2,294.14Zm-1.7,20.2c.1-.5.5-.6,1.1-.6C88.9,314.64,88,314.34,87.5,314.34Zm.6,54.1c-.1-.6.4-.5.8-.6A.7.7,0,0,1,88.1,368.44Zm1.4,29.8c-.5-.1-.6-.5-.6-1.1C89.4,397.24,89.6,397.64,89.5,398.24Zm.3-73.4h-.6v-.6h.6Zm-.6-35.1H87.5c1-1,1-1.4,2.3-1.4C89.6,288.94,89.2,288.74,89.2,289.74Zm.8,14.2c.5-1,.9.9,0,0Zm-1.4-78.5c0-1,1.3-.8,2.3-.8C90.9,225.64,89.1,224.84,88.6,225.44Zm9.9-6.5c-.2-1,1-.5,1.1-1.1C100.4,218.24,99,218.94,98.5,218.94Zm1.1-3.4c-.3-.9.9-.4,1.4-.6C100.8,215.44,100.3,215.64,99.6,215.54Zm2.5-2.5c.1-.8,1.2.3,0,0Zm20.9-3.1h0a.35.35,0,0,1,.2-.1A.35.35,0,0,1,123,209.94Zm.3-.2c.2-.1.1-.1,0,0Zm2.8-1.8c.1-.7.7-1,1.4-1.1C127.4,207.64,126.7,207.84,126.1,207.94Zm-8.9,99-.2.4c-.1.2-.1.3-.2.4C117,307.64,117.2,307,117.2,306.94Zm-2.1-63.2c-.1.5-.5.6-1.1.6C113.7,243.44,114.6,243.84,115.1,243.74Zm1.4,27c-.5,0-1.6,2-1.4,0Zm-2.8,41.1c.7-1.1.4.9,0,0Zm-.3,0c.1.6-.4.5-.8.6A.7.7,0,0,1,113.4,311.84Zm-2.5-14.6c.7-1.1.4.9,0,0Zm0,1.4h.6v.6h-.6Zm-4.5-27.9c-.2-.6.5-.4.6-.8C107.6,270,107,271,106.4,270.74Zm-.6-9.6c-.8-.4.5-1,1.1-.8C107.1,261.14,105.9,260.64,105.8,261.14Zm2.3,38.9c.8.6-.9,1.1-2,.8C106.4,300.24,107.8,300.64,108.1,300Zm-2.9,11c-.4.2.6-.2.8-.3C106,310.74,105.7,310.84,105.2,311Zm.3-.9v-.6c.6-.1.9.1.8.6Zm1-2.3a.31.31,0,0,0,.2-.1c.2-.1.5-.2.5-.3a.44.44,0,0,1-.3.1.37.37,0,0,1-.3.1C106.6,307.84,106.5,307.84,106.5,307.84Zm.4,2.9c.1-.9,1.2.3,0,0Zm.6-5.4c1.6-1,1.2.7,0,0Zm1.1,105.9c-.1-.6.4-.5.8-.6A.7.7,0,0,1,108.6,411.24Zm.6-27.3c.4-.3.3-1.2,1.1-1.1-.4.4-.2,1.3-.6,1.7C109.4,384.44,109.6,383.94,109.2,383.94Zm.8,24.5c.1-.9,1.2.2,0,0Zm.6-50.7c.1-.9,1.2.3,0,0Zm.3-11.6c0-.6,1-.1,1.4-.3C112.3,346.54,111.3,346,110.9,346.14Zm1.7,60.6v-.8h.8C113.5,406.44,113.2,406.74,112.6,406.74Zm0-46.5c0-.9,1-.7,1.7-.8C114.4,360.34,113,359.84,112.6,360.24Zm1.4-32.9c0-.9,1.1.3,0,0Zm.5-18c.2-.4.2-1.1,1.1-.8C115.7,309.24,115.3,309.44,114.5,309.34Zm1.2-16.4c0-.8,1.1.3,0,0Zm.8,16.9c.1-.8,1.2.3,0,0Zm.9,61.1c0-.8,1.1.3,0,0Zm-.3-9.6c-.5-.1.1-1.3.8-1.1C118.2,361.14,117.2,360.84,117.1,361.34Zm1.4-59.3c-.8-.9.8.7,0,0Zm44.7-49.9c-.6.5-.1,2-1.1,2C162,252.84,161.7,252.24,163.2,252.14Zm-1.9,15.8c0-.8,1.1.3,0,0Zm-1.4-3.4c.5.1.5.8,1.4.6A.76.76,0,1,1,159.9,264.54Zm1.1,3.4a.87.87,0,0,1-.8.6A.7.7,0,0,1,161,267.94Zm-5.1,46.2c.3-.9,1.5.3,0,0Zm-1.4-83.9c.3-.9,1.5.3,0,0Zm-1.4,30.4c-.1.4-.7.2-1.1.3C152.1,260.24,152.7,260.24,153.1,260.64Zm-1.1-2.8c.5-.1.4,1.3-.3.8C151.6,258.24,152,258.14,152,257.84Zm1.4,23.6c0,.9-1.3.6-1.7,1.1-.4-.1-.2-.7-.3-1.1Zm-.9,35.2c.4-.9,1.5.3,0,0Zm-1.7-26.5c.1-.8,1.2.3,0,0Zm2,6.2a4,4,0,0,1-2.3.8C150.8,296.34,151.7,296.24,152.8,296.34Zm-11-38c.5.1.6.5.6,1.1C141.5,259.64,141.4,258.74,141.8,258.34Zm-3.9,21.1c1.3.2-.2,1.7,0,0Zm1.4,5.1c-.7.4-.9,1.3-2.3,1.1C137.1,284.54,138.3,284.64,139.3,284.54Zm-.6,2.3c-.2-.4-1.4.1-1.1-.8C138.2,286,138.8,286,138.7,286.84Zm-1.6,120.7h-.6v-.8c.4.1.4.5.8.6C137.4,407.54,137.2,407.54,137.1,407.54Zm-2.9-161.6a.87.87,0,0,1-.8.6A.87.87,0,0,1,134.2,245.94Zm.3,15.5v.6h-.6v-.6Zm-1.1,26.5a1.5,1.5,0,0,1,1.4.3C134.9,288.64,133,288.74,133.4,287.94ZM131.7,253c.6.7-.7,1.7-1.4,2C130.6,254.14,131.4,253.84,131.7,253Zm-1.1,8.4c.9-.7-.7,1,0,0Zm-4.8-11c.3-.8,1.5.3,0,0Zm-.9,24c.7,1,.4,1.4.3,2.8-.8,0-.7-.8-1.4-.8C124.6,275.64,124.9,275.24,124.9,274.44Zm.9,14.6c-.2.7-.4,1.3-1.1,1.4C125.2,290.14,124.9,289,125.8,289Zm-2,4.2c.1-.8,1.2.3,0,0Zm-2.2,37.7a.87.87,0,0,1,.8-.6C122.5,331,122,330.94,121.6,330.94Zm0,29.6c0-.8,1.1.3,0,0Zm1.4-65.9v1.1C122,295.74,122,294.64,123,294.64Zm-.9-50.1c.7-1.1.4,1,0,0Zm.9,22.3c-.2.4-.9.4-1.4.6C121.6,266.74,122.3,266.74,123,266.84Zm-.9,24.7c.1.6-.4.5-.8.6A.78.78,0,0,1,122.1,291.54Zm-3.1-25.3c.1-.8,1.2.3,0,0Zm-.2,93.2c0-.9,1.1.2,0,0ZM119,334c.6-.5,1.1-1.2,2.3-1.1C121.3,334.14,119.9,333.84,119,334Zm2.3,34.1c.2-.6.8-.7,1.4-.8A1.68,1.68,0,0,1,121.3,368.14Zm1.4-70.9c-.3,0-.2-.5-.3-.8C123.4,296.14,122.9,296.94,122.7,297.24Zm.3,42.5c.7-1.1.4.9,0,0Zm.8-7.3a.87.87,0,0,1,.8-.6C124.8,332.44,124.3,332.34,123.8,332.44Zm.9-37.2c.4.2,1.5-.3,1.4.3C126.3,296.64,124.3,296.14,124.7,295.24Zm.5,117.7c.1-.9,1.2.2,0,0Zm0-92.1c.5-.1.5.3.8.3C126.2,321.64,124.8,321.54,125.2,320.84Zm1.4,2.3H126v-.6h.6Zm-.2-16.6c-.8.5.8-1.8,1.4-.8C127.6,306.24,126.2,305.64,126.4,306.54Zm-1.2-33.8c-.1-1.9,2.7-1.7,3.9-2.8-.3,1-1.4,1.2-1.4,2.5A6.87,6.87,0,0,0,125.2,272.74Zm4,131.7h-.6v-.6h.6Zm-1.2-32.9c.2-.4.6-.5,1.1-.6C129.5,371.84,128.5,371.44,128,371.54Zm1.5-101.6c.2-.4.6-.5,1.1-.6C130.5,269.84,130.1,269.94,129.5,269.94Zm1.1,128.3c-.1-.6.4-.5.8-.6A.7.7,0,0,1,130.6,398.24Zm.5,11.8c.1-.8,1.2.3,0,0Zm0-99.6c-.3-.8.6-.5,1.1-.6C132.1,310.24,131.7,310.44,131.1,310.44Zm1.7-6.8a.87.87,0,0,1,.8-.6C133.8,303.74,133.3,303.64,132.8,303.64Zm1.4,103.6c-.7-.1,0-1.1.6-.8C135,407,134.3,406.84,134.2,407.24Zm.9-146.1c.4-.9.7,1.1,0,0Zm.5,144.2Zm0-113.8c-.9-.4.5-1.3.8-.6C136.4,291.44,135.6,291.14,135.6,291.54Zm.6,117.1c-.5-.2,1.3-1.2,1.7-.6C137.7,409.24,136.6,408.14,136.2,408.64ZM137.6,289c.1-.8,1.2.3,0,0Zm.6,66.4c0-.8,1.1.3,0,0Zm.5,41.4c1.3.1-.3,1.6,0,0Zm.3-64.7c.1-.5.5-.6,1.1-.6C140.1,332,139.7,332.24,139,332.14Zm.9-54.4c0-.8,1.1.3,0,0Zm.5,130.1c.1-.9,1.2.3,0,0Zm.6-77.4c.3-.9.6-.2,1.1,0C142.1,331.14,141.2,330.54,141,330.44Zm.8-33.2c.9-1.1,1,.8,0,0Zm1.7,28.7c-.3,0-.2-.5-.3-.8C144.2,324.84,143.7,325.64,143.5,325.94Zm-1.4-69.3c.9-.1,1,.5,2,.3C144.1,257.84,142.1,257.44,142.1,256.64Zm4,103.1v-.6c.6-.1.9.1.8.6Zm.5-2.9c.1-.8,1.2.3,0,0Zm1.1,42.9h0v-.2C147.8,399.54,147.8,399.64,147.7,399.74Zm1.3-115.2v-.8C150,283.24,150,284.94,149,284.54ZM150,410c.7-1.1.4,1,0,0Zm.6-112c.9-.2.5.6.3.8C150.5,298.84,150.6,298.34,150.6,298Zm.5,117.4c1-.7-.7.9,0,0Zm.3-14.1c0-.7.4-.9.6-1.4.4.1.1.8.6.8A1.43,1.43,0,0,1,151.4,401.34Zm1.1,2c-.1-.6.4-.5.8-.6C153.3,403.14,153,403.34,152.5,403.34Zm1.7-118.2c.1.7-.1,1.2-.8,1.1C153.3,285.54,153.5,285,154.2,285.14Zm.6,10.4a2.64,2.64,0,0,0-.7-.1C154.4,295.44,155.2,295.64,154.8,295.54Zm-.7,20.3a.31.31,0,0,1,.1-.2.35.35,0,0,1,.1-.2.37.37,0,0,0,.1-.3,1,1,0,0,0-.1.3v.1c0,.1,0,.1-.1.1A.31.31,0,0,0,154.1,315.84Zm.1,4.7c.4-.8,1.5.3,0,0Zm.3-21.9c.1-.9,1.2.2,0,0Zm.6-39.7h-1.4c.2-.6,1-1,1.4-.6Zm.2,83c.9-.7-.7.9,0,0Zm1.1,73.7a2.2,2.2,0,0,0-.8.1c-.2-.9.9-.4,1.4-.5A1.54,1.54,0,0,1,156.4,415.64Zm.1-149.4c0-.6,1.2-.1,1.7-.3C158.2,266.74,156.8,266.64,156.5,266.24Zm3.1,40.3v-.6h1.1C161,306.74,160.1,306.44,159.6,306.54Zm.4,15.4v-.8C161,320.74,161,322.44,160,321.94Zm.7,90.4c.3-.9,1.5.3,0,0Zm.8-100.5c-.8-.5.8-.8,1.1-1.1C163.7,311.44,161.5,311.24,161.5,311.84Zm1.4,24.8c.1-.9,1.2.2,0,0ZM275,478.14c0,.1-.1.1,0,0-.1.1,0,.1,0,0h0C275.5,478,276.2,477.74,275,478.14Zm-.3-1.1c.1-.8,1.2.3,0,0Zm-.9-1.1c.1.6-.4.5-.8.6A.76.76,0,0,1,273.8,475.94Zm-.2,2.8c.2,1.2-.4,1.4-.3,2.5-.8-.4-.9-1.6-1.4-2.2C272.9,478.44,272.6,479.64,273.6,478.74Zm-2.6-21.1v1.1C270,458.94,270,457.64,271,457.64Zm-2.7-11.8a2.35,2.35,0,0,1,.2.8h-.3C267.9,446.44,268,446,268.3,445.84Zm-4.9,4.8h-.6V450h.6Zm-.5-4.5c.7.3-.2,1.2-.8,1.1C261.8,446.34,262.8,446.64,262.9,446.14Zm-1.2-11.9c.7-1.2-.2.4,0,0Zm-.2,15.2c0-.8,1.1.3,0,0Zm-.9,2.6v-1.1h.8C261,451.14,261.5,452.24,260.6,452Zm0-19.7c-.8,1-.9-.9,0,0Zm11-70.7c.1.6-.4.5-.8.6A.7.7,0,0,1,271.6,361.64Zm-1.4-10.1c.5-.1.5.3.8.3C271.1,352.34,269.8,352.24,270.2,351.54Zm-1.7,4.2a.87.87,0,0,1-.8.6C267.5,355.74,268.1,355.74,268.5,355.74Zm-1.4-2.8Zm-.3.3c.5.9-.2,1.5-1.1,1.7C265.2,354,265.7,353.34,266.8,353.24Zm-.3,12.4c0,.6-1.2.1-1.7.3C264.9,364.54,266.2,364.64,266.5,365.64Zm-3.1-3.1c.1-.9,1.2.2,0,0Zm-4.5-3.4c.5-.1.5.3.8.3C259.9,359.94,258.5,359.84,258.9,359.14Zm-4.5-.8c-.1-.2.2.1,0,0Zm.3,10.4h-1.1C253.5,367.74,254.9,367.74,254.7,368.74Zm-10.7-9.9c-.2.4-.4.9-1.1.8C242.8,358.94,243.3,358.74,244,358.84Zm-12.7,38.3a1.82,1.82,0,0,1-1.1,1c-.1-.1-.2-.3-.3-.4A3.67,3.67,0,0,0,231.3,397.14Zm-3.3-2c-.3.5-.5,1-1.4.8C226.4,395.14,227.2,395.14,228,395.14Zm-2,0c-.8-.8.9.8,0,0Zm-1.7,2c.1-.8,1.2.3,0,0Zm-3.1-2c1-.7-.7,1,0,0ZM218.7,374c.3-.8,1.5.3,0,0Zm-.3,8.7c.1.6-.4.5-.8.6A.78.78,0,0,1,218.4,382.74Zm-4.5-22.5c.1-.8,1.2.3,0,0Zm-20.8,32.7c.3-.9,1.5.3,0,0Zm.5-18.6H193c.1-.2-.1-.3-.3-.3C192.7,373.54,194.1,373.64,193.6,374.34Zm-.8,4.2h0v0Zm-.6,30.4c.9-.8-.7.9,0,0Zm-.3-9.6c.1-.8,1.2.3,0,0Zm-12.1,8.5c.1-.9,1.2.3,0,0Zm9.9-7a1.5,1.5,0,0,1,1.4.3C191.1,401.54,189.3,401.64,189.7,400.84Zm-3.7,1.1c.2.6-.5.4-.6.8-.3,0-.2-.5-.3-.8ZM184.3,385c.4-.9,1.5.3,0,0Zm-.5-20.3h.6v.6h-.6Zm-.3,19.7c.2.1.3.3.6.3C183.9,385.44,182.7,384.94,183.5,384.44Zm-.3,10.4c.9-2,1.2.4,0,0ZM181.8,405c.3-.6.8-1.1,1.1-1.7C183.4,403.54,182.8,405.24,181.8,405Zm.6-7.6c0,.6-.8.4-.6,1.1C181.2,398.44,181.4,396.94,182.4,397.44Zm-1.2,10.4c-.3,0-.2-.5-.3-.8C181.9,406.84,181.4,407.54,181.2,407.84Zm-1.1-31.3c.1-.8,1.2.3,0,0Zm.3,22.6c.8.3-.5,1.6-.8.8C179.5,399.34,180.4,399.64,180.4,399.14Zm-5.6-37.2c.3-.8,1.5.3,0,0Zm.5,13.8c-.1.4-.7.2-1.1.3C174.3,375.64,174.9,375.84,175.3,375.74Zm65.6-123.5Zm-5.6,9.5c.3-.9,1.5.3,0,0Zm-66.7-34.6c-.3.5-.9.6-1.7.6C166.9,226.84,168.2,226.74,168.6,227.14Zm-2.3,64.2c1.2-.2-.4,1.1.8,1.1-.1.6-1.5.2-1.7,0C165.4,291.64,166.6,292.24,166.3,291.34Zm-.3-35.5c-.1.7-.7.6-1.1.3C165,255.74,165.6,255.84,166,255.84Zm-1.9,137.1c.3-.9,1.5.3,0,0Zm.8-51.3c.4-.9.7,1.1,0,0Zm-.8-30.6c0-1.1,2-.2,2.5-.8C166.4,311.14,164.7,310.54,164.1,311Zm2.5,48.9c.1-.4.7-.2,1.1-.3C167.6,360,167,359.94,166.6,359.94Zm1.4,53.2c1.7.4-1,1.4,0,0Zm-.5-139.4h1.1C168.8,274.74,167.4,274.74,167.5,273.74Zm1.6,15.9c1-.7-.6.9,0,0Zm-.2-16.4c.4-1,.8,1,0,0Zm0-9.5c.3-.9,1.5.3,0,0Zm1.1,33.8c.2-.4.9-.4,1.4-.6C171.4,297.74,170.3,297.74,170,297.54Zm8.7-15.5c.1-.9,1.2.2,0,0Zm1.7,34c.1-.8,1.2.3,0,0Zm4.2-11.8a1,1,0,0,1,1.1-1.1C185.9,304,185.5,304.34,184.6,304.24Zm4,.9c-.5-.1-1.4.3-1.1-.6.5,0,.6-.3,1.1-.3Zm5.3-22c.1-.8,1.2.3,0,0Zm2.2,20.8c0,.3-1,1.8-.5.6v-.3c.2-.2.3-.3.5-.3-.1-.1-.2-.1-.2-.3C196.4,302.84,196.4,303.94,196.1,303.94Zm1.2-6.2v-.6h1.4C199,298.14,197.8,297.64,197.3,297.74Zm.3-10.4c1,.9-.9,1,0,0Zm10.9-.3c0-.8,1.3-.7,1.7-.3C210.2,287.44,209,286.94,208.5,287Zm9.1-16.3c0-.8,1.1.3,0,0Zm-.6-1.1c.4-.7,1.1-.7,1.4,0C218.3,270.24,217.2,269.74,217,269.64Zm1.7-.6c0-.8,1.1.3,0,0Zm-9.3-34.3c.7-1.1.4.9,0,0Zm-11.3.5c1-.6-.6,1,0,0Zm-11.8-3.3c.6-.1.9.1.8.6h-.8Zm44.5,25.7a5.58,5.58,0,0,0-.8.5l-.4.3q-3.15,2.85-6.3,6c-12-24.4-34.5-19.8-34.5-19.4-.5,2.6,2.3,4.3,13.9,11.1,7.2,4.2,10,12.5,11.1,18.2q-5.1,5.55-10.5,11.7c-31.7-15.5-27.4-49.7-27.4-49.7S222.1,236.44,230.8,257.64Zm-17.7,1.3a.87.87,0,0,1-.8.6C212.1,258.94,212.6,258.94,213.1,258.94Zm-.9.8c.1.6-.2.9-.8.8v-.8Zm-28.7-40.2a.87.87,0,0,1,.6.8C183.3,220.44,183.1,219.94,183.5,219.54Zm-2,13.5c.1-.8,1.2.3,0,0Zm-3.1-11.5c1.2.1-.3,1.6,0,0Zm-.5-5.4h.6v.6h-.6Zm-1.2.6c.5-1,.9.9,0,0Zm-.5,6.7a.87.87,0,0,1-.8.6C175.2,223.44,175.7,223.54,176.2,223.44Zm-2-7.6c.1-.8,1.2.3,0,0Zm-.8,33.5c-.1.5-.5.6-1.1.6C172.4,249.54,172.8,249.44,173.4,249.34ZM171.7,271c.9.4-.5.8-.6,1.1C170.2,271.74,171.6,271.34,171.7,271Zm-31.5-63.9c.9-.7-.7.9,0,0Zm-13.8-79.4c.6-.1.9.1.8.6h-.8Zm-1.7,49.8c0-.8,1.1.3,0,0Zm.8-47.5h-.6v-.6h.6Zm.6,49.5a.87.87,0,0,1,.8-.6C127.1,179.64,126.5,179.54,126.1,179.54Zm1.7-4.8c-.9,1.1-1-.8,0,0Zm0-59.6c-.1-.6.4-.5.8-.6A.87.87,0,0,1,127.8,115.14Zm7.3,77.6c.7.1-.4.5,0,1.1H134C133.7,192.94,135,193.44,135.1,192.74Zm-2,2.6c1.6.2,1.2,2.5-.3,2.8C134.1,197.44,133.4,196.64,133.1,195.34ZM129.5,175c0,.7-1,.1-1.1,0C128.4,174.34,129.3,174.94,129.5,175Zm0-56c-1.9.2.1-1.8,0,0Zm6.5-14a1.27,1.27,0,0,0,.1.6h-.2C135.8,105.14,135.9,105,136,105Zm-1.8,8.6c.4-.8,1.5.4,0,0Zm-.8-9.2c.5-.1.5.3.8.3C134.3,105.24,133,105.14,133.4,104.44Zm-2.3,24.2a.87.87,0,0,1,.8-.6C132.1,128.64,131.6,128.54,131.1,128.64Zm.9-4.3c2.3-1.5,4,.2,0,0Zm2.2,18.9v.6h-.6v-.6Zm-1.6,19.3c.1,0,.1-.1.2-.1C133.2,162.24,132.9,162.34,132.6,162.54Zm2.2,16.2c.7-1.1.4.9,0,0Zm-1.4-13.8c.5-.9,2.3-.5,3.1-1.1C136.4,165,134.7,164.84,133.4,164.94Zm14.3-67c.1-.9,1.2.3,0,0Zm-1.1,18.6c1-.7-.7.9,0,0Zm-4.2,61c.9-.6-.7,1,0,0Zm.3-22.8c-.1-.7.4-.9,1.1-.8C143.6,154.34,143.4,154.84,142.7,154.74Zm1.1,18.9c.1-.8,1.2.3,0,0Zm.6,8.2c0-.9,1.1.2,0,0Zm0-10.2c-.3-.8.6-.5,1.1-.6C145.4,171.64,145,171.74,144.4,171.64Zm1.4-5.3c0-.5.3-.6.3-1.1C146.9,165.24,146.7,166.54,145.8,166.34Zm.5-34.9c-.3,0-.2-.5-.3-.8C147,130.34,146.5,131.14,146.3,131.44Zm.3-5.1c.7-1.1.4.9,0,0Zm0-4.8a.87.87,0,0,1,.8-.6C147.6,121.64,147.1,121.54,146.6,121.54Zm1.1,40.6c.2.1.3.3.6.3C148.2,163,147,162.54,147.7,162.14Zm-1.1-51.8c.2-.9,1.6-.4,2.2-.8C148.6,110.84,147.8,110.34,146.6,110.34Zm3.7-35.8h-.8a1.61,1.61,0,0,0,.3-1.1C150.2,73.54,150.4,73.94,150.3,74.54Zm-.3-1.4c.1-.8,1.2.3,0,0Zm2.3-5.3c-.2.4-.6.5-1.1.6C150.8,67.54,151.8,67.84,152.3,67.84Zm-.6,30.9c.4-.7.6-.5.3-1.4h.8C152.7,98,152.6,98.84,151.7,98.74Zm6.5,22.8c.7-1.1.4,1,0,0Zm.2-6.1a.44.44,0,0,0-.1.3C158.3,115.64,158.4,115.54,158.4,115.44Zm-.2.5c0-.1.1-.1.1-.2a.31.31,0,0,0-.1.2Zm-1.6,3.9v-.5h.5C157.1,119.64,156.8,119.74,156.6,119.84Zm.2-33.5c.3-.8,1.4.3,0,0Zm1.1,56.9c0-.8,1.2.3,0,0Zm-.6-5.1c-.3-.9.9-.4,1.4-.6C158.5,138,158,138.24,157.3,138.14Zm1.1-11.5c.1-.8,1.2.3,0,0Zm1.2,36c-.7-.1,0-1.1.6-.8C160.3,162.44,159.6,162.24,159.6,162.64Zm.5-10.7c.1-.8,1.2.3,0,0Zm.6-25.9h-.6v-.6h.6Zm0-1.9c.5-1,.9.9,0,0Zm1.7,25.6c.8-1.1.9.8,0,0Zm.5,32.3c0-.9.8-.8,1.7-.8C164,181.44,163.9,182.14,162.9,182Zm9.1,8.8a.82.82,0,0,1,.5-.5l.3.3C172.7,190.84,172.3,190.84,172,190.84Zm9.2,9c.5-.1.5.3.8.3C182.2,200.64,180.8,200.54,181.2,199.84Zm6.5-5.7c.3-.9.5-.1,1.4-.3C189.1,194.64,188.1,194.54,187.7,194.14Zm1.7-16V177h.8C190.3,177.74,190.1,178.24,189.4,178.14Zm6.5-25.9c0-.8,1.1.3,0,0Zm.5-5.3c.1-.7.7-.6,1.1-.3C197.5,147,196.9,146.84,196.4,146.94Zm.3-6.2c.1-.5.5-.6,1.1-.6C198.1,141,197.2,140.64,196.7,140.74Zm4.5-3.7c-.3-.8.6-.5,1.1-.6C202.3,136.94,201.9,137.14,201.2,137Zm1.4-3.1c.1-.8,1.2.3,0,0Zm1.2-.3c0-.8,1.1.3,0,0Zm1.1-.2c-.4-.1-.2-.7-.3-1.1C205.6,132,205.1,133.14,204.9,133.44Zm3.5-14.4a4.33,4.33,0,0,0,.1-.5v-.1A1.49,1.49,0,0,1,208.4,119Zm9.2-.3a.87.87,0,0,1-.6-.8C217.6,117.74,217.5,118.34,217.6,118.74Zm-1.2,9.9c.1-.9,1.2.2,0,0Zm-.5-14.1c-.3,0-.2-.5-.3-.8C216.5,113.54,216,114.24,215.9,114.54ZM211.6,166c-.6.9-1.8-.3,0,0Zm2.3-25.9c.1.6-.4.5-.8.6A.7.7,0,0,1,213.9,140.14Zm-.6,3.4c-.5,1.6-2-.7-2.5.3C210.2,142.74,212.6,143,213.3,143.54Zm-1.7,5.6c.1.7-.6.7-1.1.8C210.4,149.24,210.9,149,211.6,149.14ZM208.5,175c.1-.8,1.2.3,0,0Zm-3.1,13.8c.4-.9,1.5.3,0,0Zm46.2,6.2a.87.87,0,0,1-.8.6A.7.7,0,0,1,251.6,195Zm-9.8,2c.4-1,.8.9,0,0Zm-6.2-1.4c-.8.7-.2,2.8-2,2.5C233.6,196.64,234.6,196.14,235.6,195.64Zm-28.2-19.5c.1-.8,1.2.3,0,0Zm8.2,47c.1-.4.9-.2.6-1.1h.8C216.4,222.84,217.1,223.24,215.6,223.14Zm21.4,2Zm3.4-4.5c0-.8,1.1.3,0,0Zm10.9-5.4h0a.76.76,0,0,0,.1-.4C251.5,214.94,251.4,215.14,251.3,215.24Zm.6,13.3c.6-.1.5.4.6.8A.7.7,0,0,1,251.9,228.54Zm1.5-19.6c-.3,1.5-.6,3-.8,4.2-12.8.2-25.4.8-38,1.9-3.4-2.4-5.9-5.2-6.7-8.2a18.35,18.35,0,0,1-.4-5c15.8-1.3,31.7-2,47.8-2.1C254.8,202.14,254.2,205.14,253.4,208.94Zm2.4,4.4c-.7-.9.9.8,0,0Zm.6-.9c.9-.7-.8.9,0,0Zm4.5,41.1h0a1.09,1.09,0,0,1,.2-.4Zm.8-1.4Zm21.2-58.2c.3-.9,1.4.3,0,0Zm-4.5.5c.1.2-.2-.1,0,0Zm-1.2,2.6c.7-1.1.4.9,0,0Zm-12.4,32.9Zm5.1,14.4c.1-.9,1.2.2,0,0Zm12.7-2.3Zm1.1-16.3Zm1.1,28.4c.4-.9,1.5.3,0,0Zm.6-26.2Zm-.3-9.3c.1-.8,1.2.3,0,0Zm4.5,5.7c.1-.9,1.2.2,0,0Zm3.8-12.9c-.3.8-.5,1.7-.8,2.5-8.4-.5-16.7-.8-25.1-.9-.1-5.6-.2-10-.6-13.4,9.8.1,19.7.5,29.6,1.1C295.9,203.54,294.7,207.24,293.4,211.44Zm8-32.7c.1-.9,1.2.2,0,0Zm2.6-6.5c0-.9,1.1.3,0,0Zm3.8,55.1c.1,0,.2-.1.4-.2Zm.1-45.8c0-.6,1-.1,1.4-.3C309.3,181.94,308.3,181.94,307.9,181.54Zm.9-6.5v-.6c.6-.1.9.1.8.6Zm1.6,46.5c.2.1-.1-.2,0,0Zm-.5-5.4c.3-.8,1.5.3,0,0Zm1.7-11.8c0-.4.3-.4.4-.2v.3C311.9,204.34,311.8,204.34,311.6,204.34Zm7.9,14.9c1.3-.1-2.3.2,0,0ZM324,222c-.2-.1.1.2,0,0Zm1.1,2.8h-.6c.1-.2-.1-.3-.3-.3C324.1,224,325.5,224.14,325.1,224.84Zm5.6-6.4c-.1-.2.2.1,0,0Zm.6-1.2c-.1-.6.4-.5.8-.6A.7.7,0,0,1,331.3,217.24Zm-3.5-.2c-5.2-.6-10.3-1.1-15.5-1.6-.2-4.3-.3-8.9-.4-13v-.7c10,.8,20.1,1.9,30.2,3.2C334.8,211.54,329.2,215.94,327.8,217Zm12.8-73.2c-.2-.2.1.2,0,0Zm4.5,6.2c0-.9,1.1.2,0,0Zm.8,7.6c-.1-.6.4-.5.8-.6A.78.78,0,0,1,345.9,157.64Zm11-3.4c0-.9,1.2.3,0,0Zm8.1,7c.7-1.1.5,1,0,0Zm6.2,10.4Zm-2.8,2.3h.6v.6h-.6Zm.6,11.5Zm-.3,1.7c-.1-.7.1-1.2.8-1.1C369.6,186.74,369.4,187.24,368.7,187.14Zm.9-6.2c.1.2-.2-.1,0,0Zm1.1-1.1c-.6-.1-.1-1.3.6-1.1C371.6,179.64,370.8,179.44,370.7,179.84Zm4.8-6.5c.3,1-1.1.4-1.7.6C374.1,173.54,374.7,173.44,375.5,173.34Zm-2,6.8c.3-.5.5-1,1.4-.8A1.68,1.68,0,0,1,373.5,180.14Zm2-2.3c-.7.1-1.2-.1-1.1-.8C375.1,176.94,375.7,176.94,375.5,177.84Zm7.3-9.8c.5-.1.5.3.8.3C383.7,168.84,382.3,168.74,382.8,168Zm3.6-8.5c.4-.8,1.5.3,0,0Zm1.4-2.5c-.6.1-.7-.2-1.1-.3.2-.4.4-.9,1.1-.8C387.4,156.44,387.9,156.24,387.8,157Zm7.6-18.6Zm-.5-2.5c-.1.7-.7.9-1.4,1.1C393.3,137.14,394.1,135.74,394.9,135.94Zm-1.7,11.5c.1-.8,1.2.3,0,0Zm-2.3-5c-.5-.2,0-.5,0-.8C391.4,141.74,391,142,390.9,142.44Zm1.2-3.4h-.8v-.6C391.8,138.34,392.1,138.54,392.1,139Zm-.9-5.4c.1.7-1.3-.2-.8.8-.4-.1-.2-.7-.3-1.1C390.7,133.24,390.8,133.54,391.2,133.64Zm-1.1-5.9c-.9,1.1-.9-.8,0,0Zm-1.4,8.5c-.1-.2.2.1,0,0Zm-3.4-9.3v.8c-.6.1-.7-.2-1.1-.3C384.3,126.94,384.7,126.84,385.3,126.94Zm-3.1-1.1c-.2.4-.6.5-1.1.6C380.8,125.54,381.7,125.84,382.2,125.84Zm-9.3-8.2c.7-1.1.4.9,0,0Zm-24.5-2.5c.1-.9,1.2.2,0,0Zm-9.5-.9Zm-31.8-14.6c0-.9,1.1.2,0,0Zm-6.5-1.7c.3-.9,1.5.3,0,0Zm-.3.8a1.27,1.27,0,0,1-1.1-1.1A1,1,0,0,1,300.3,98.74Zm-.3.6c-.1.5-.5.6-1.1.6C299,99.44,299.4,99.24,300,99.34Zm-11.5-5.9Zm-4.5-2.6c-.1.5-.5.6-1.1.6C282.6,90.64,283.5,90.94,284,90.84Zm-42.5-30.1c.7-1.1.4,1,0,0Zm2.2-5.6c-.9-.7,1.5-.7,0,0Zm5.9,5.6c1,.8-1.4.7,0,0Zm5.1-.3c-.2-.1-.3-.3-.6-.3.1-.2.3-.3.3-.6.2.1.3.3.6.3C254.9,60.14,254.7,60.24,254.7,60.44Zm11.8,12.7c-.2-.6.5-.4.6-.8C267.8,72.44,267.1,73.44,266.5,73.14Zm2.8-5.1a.37.37,0,0,1-.3.1c.2,0,.3,0,.3-.1Zm32.1,22c.4-1.2,1.8-.4,2.5-.8C303.8,90.64,302.7,89.54,301.4,90Zm4.6,0v-.8C307,88.74,307,90.44,306,90Zm19.4,7.9a.87.87,0,0,1,.8-.6C326.3,97.94,325.8,97.94,325.4,97.94Zm11.5,2.2c.9-.6-.7,1,0,0Zm0-3.3c.1-.3.6-.2.6-.6C338.6,96.44,337.5,97.54,336.9,96.84Zm2.8-1.7c-.6.8-1.8-.4,0,0Zm4.5,2.5Zm7.6-5.6Zm-3.2-9.6c0,.1.1.2.1.3h-.3C348.5,82.64,348.5,82.54,348.6,82.44Zm.7,10.4c-.2.4-.7.6-1.4.6C347.8,92.54,348.9,92.44,349.3,92.84Zm-4.8-12.1c.1-.8,1.2.3,0,0Zm-2.5,2.5Zm6.7-4.5Zm16.9,22c.1-.8,1.2.3,0,0Zm6.2,1.1Zm5.6.3c-.3-.1-.3-.2-.2-.4.1.1.2.1.3.2S377.4,102,377.4,102.14Zm8.2,5.4c.1-.9,1.2.2,0,0Zm.6,2.8c.9-.7-.7.9,0,0Zm3.9,4.5-.9-.3a1.76,1.76,0,0,1,.4-.5c.2.1.3.3.6.3A.75.75,0,0,0,390.1,114.84Zm1.4-1.4c.1-.7.8-1.2,1.4-.6C392.9,113.44,392.2,113.44,391.5,113.44Zm1.7.2Zm5.3-.8c-.9-.4.6-.7.3-1.4C400.2,111.54,398.9,112.74,398.5,112.84Zm9.3.8c1.2.3,0,1.5,0,0Zm1.7-10.6c.7-1.1.4.9,0,0Zm.9,5.6c-.1-.6.4-.5.8-.6A.76.76,0,0,1,410.4,108.64Zm3.9-34.9c.1-.9,1.2.2,0,0Zm1.1,12.6h-.6v-.6h.6Zm-.2-20.5c-.1.5-.5.6-1.1.6C414.2,66,414.6,65.84,415.2,65.84Zm-1.5,15.5h.6v.6h-.6Zm-.8-1.7c.7-1.1.4.9,0,0Zm-.8,5.1c0-.9,1.1.2,0,0Zm-2,19.1c.1-.7.7-.6,1.1-.3C411.1,103.94,410.5,103.74,410.1,103.84Zm-1.4-48.4ZM403,24.74c.1-.8,1.2.3,0,0Zm-1.6-20c.1.2-.2-.1,0,0Zm-.3.6Zm-3.7,7c.1-.8,1.2.3,0,0Zm2.6.9c.6-.1.9.1.8.6H400Zm1.1,15.7Zm.3-11h-.6c.1-.2-.1-.3-.3-.3C400.4,17.14,401.8,17.34,401.4,17.94Zm10.4-.5c1.1.3,0,1,.3,2H411C411.1,18.64,411.6,18.24,411.8,17.44Zm-.8,5.9v-1.1C413,21.94,413,23.54,411,23.34Zm3,4.2c-.8.2.2-1.3-.6-1.1.1-.3.6-.2.6-.6A1.51,1.51,0,0,1,414,27.54Zm0-5.3c-.1-.9.4-1.1.6-1.7C415.8,20.54,414.8,22.44,414,22.24Zm1.2,3.9c-.2-.1.1.2,0,0Zm4.5,107c-.2-.8.6-.6.6-1.1C420.6,131.84,420.3,133.34,419.7,133.14Zm.3-1.7v-.8C421,130.14,421,131.84,420,131.44Zm.2-7.9c.9.2.5,1.3.8,1.4C420.1,125.74,419.8,124.44,420.2,123.54Zm2.6,7c-.1-.9.6-.9,1.4-.8C423.9,130.24,423.6,130.74,422.8,130.54Zm1.9-5.6Zm.6-7.6c0-.8,1.2.3,0,0Zm0-34.9Zm3.4,13.8c-.1.5-.5.6-1.1.6C427.3,95.94,428.2,96.34,428.7,96.24Zm-.9-52.9Zm-.5,19.1c-1.2.1-.4-1.4,0-1.4S427.7,62.54,427.3,62.44ZM427,50Zm.5-5.9c.3.8-.6.5-1.1.6C426.5,44.24,426.9,44,427.5,44.14Zm-3.9,2.6c.1-.9,1.2.2,0,0Zm-2.8-9.1c0-.8,1.1.3,0,0Zm2.2,9.1c-.1-.2.2.1,0,0Zm.6,2.2c.5-.1.5.3.8.3C424.6,49.74,423.2,49.64,423.6,48.94Zm1.1-3.1Zm-.5-2a.76.76,0,0,1,.8-.6C424.9,43.64,424.6,43.94,424.2,43.84Zm.8,9v-1.4c1,.6,1,.3.6-.7h.8C426.5,51.74,426,53.14,425,52.84Zm.8,84.8V137c.6-.1.9.1.8.6Zm.9-6.2c.4-.8,1-1.4,2-.8C428.4,131.24,427.5,132.14,426.7,131.44Zm7-9.3c.3-.4,1-.5,1.7-.6C435.2,122,434.5,122.14,433.7,122.14Zm3.1.6c-.3,0-.2-.5-.3-.8C437.5,121.64,437,122.44,436.8,122.74Zm4-22.8c0-.9,1.1.2,0,0ZM295.2,258.64c.1-.8,1.2.3,0,0Zm52.3-26.5v.3h-.2C347.3,232.24,347.4,232.14,347.5,232.14Zm-1.9,2c.1-.8,1.2.3,0,0Zm-1.4,7.6c.8.5-.2,1.7-1.1,1.4C342.9,242.14,344.6,242.94,344.2,241.74Zm-1.7-.5c-.1-.2.2.1,0,0Zm-3.1,3.1c-.1-.2.2.1,0,0ZM340,258c-.9,1.1-1-.8,0,0Zm-13.2,10.7ZM315.2,264c-.9-.3.6-.5.6-.8C316.9,263.64,315.2,263.64,315.2,264Zm2.3,1.6Zm10.4-30.4c0-.8,1.2.3,0,0Zm4.2-5.3c.1-.4.5-.4.6-.8C333.6,229.24,333.1,230.14,332.1,229.94Zm16.3-10.4c.3-.3.1-1,.8-.8C349.3,219.34,349.1,219.54,348.4,219.54Zm6.5-1.8a.1.1,0,0,0-.1-.1v-.1C355.5,217.14,355.2,217.54,354.9,217.74Zm-30.4,80.9c-.7-.1,0-1.1.6-.8C324.9,298,324.4,298,324.5,298.64Zm1.4-2.6Zm5.7,22.3c-.2-.1.1.2,0,0Zm5.3-19.4c.9-.7-.7.9,0,0Zm1.4,41.3c-.5-.1-.6-.5-.6-1.1C338.2,339.24,338.4,339.64,338.3,340.24Zm2-3.6c-.1-.5.3-.5.3-.8C341.1,335.64,341,337,340.3,336.64Zm1.9-13c-.1-.5.3-.5.3-.8C343.1,322.74,342.9,324.14,342.2,323.64Zm.6,10.2c.4-1,.7,1.1,0,0Zm1.4-12.1c.2.1-.1-.2,0,0Zm1.1,20.2c.1-.8,1.2.3,0,0Zm1.7-76.3a.76.76,0,0,1,.8-.6C348,265.74,347.5,265.64,347,265.64Zm1.2,93.5c.3-.9,1.5.3,0,0Zm0-53.5c-.1-.6.4-.5.8-.6A.76.76,0,0,1,348.2,305.64Zm1.4,89.2h-.4a1.27,1.27,0,0,0-.1-.6h.5Zm.5-.5Zm.4,12.7v-.3Q350.8,406.89,350.5,407Zm-45.1,116.2c-.1-.6.4-.5.8-.6A.7.7,0,0,1,305.4,523.24Zm.5-2c.1-.8,1.2.3,0,0Zm1.4,1.3a1.1,1.1,0,0,1,.9-.4A3.55,3.55,0,0,0,307.3,522.54Zm42.3,1.8c-.1.3.2-.4.3-.5A1.07,1.07,0,0,0,349.6,524.34Zm17.1-144.9c.2.1-.1-.2,0,0Zm0,21.4a.68.68,0,0,1-1.1.6C365.7,400.84,366.1,400.74,366.7,400.84Zm-4.5,94a.87.87,0,0,1,.8-.6C363.2,494.84,362.7,494.74,362.2,494.84Zm0,.8c.1-.8,1.2.3,0,0Zm0-2.8c-.2-.8.6-.6.6-1.1C363.5,491.84,362.9,493.14,362.2,492.84Zm-4.8,16v-.6c.6-.1.9.1.8.6Zm-.2.9c0-.9,1.1.3,0,0Zm.2-13.5c.6-1.5,1.9-.3,0,0Zm.6,10.1v-1.1A.58.58,0,1,1,358,506.34Zm.6-28.7c0-.8,1.1.3,0,0Zm-1.4-26.5c.5-.9,1.6,0,2-.6.6.1.2,1.5,0,1.7C357.7,452.74,358.4,451,357.2,451.14Zm-4.3-56.5c-.2.6-.8.7-1.4.8C351.8,394.94,352.1,394.44,352.9,394.64Zm-.5-52.4Zm.3,72.8a1.38,1.38,0,0,0-.3.4c-.2.2-.4.4-.4.5a1.2,1.2,0,0,1,.4-.4l.1-.1C352.5,415.24,352.7,415.14,352.7,415Zm.5,23.5c.3,1.2-1.1.8-1.1,1.7C351.3,439.64,352.2,438.24,353.2,438.54Zm1.7,16.3c-.7,0-.8.5-1.7.3C353.1,454.14,355,453.44,354.9,454.84Zm-1.4-84.4c-.1-.2.2.1,0,0Zm.9,94.8a1.32,1.32,0,0,1,1.7-1.1C356.3,465.34,355.4,465.34,354.4,465.24Zm1.9,11.3c-.9,0-1.9.2-1.7-.8C355.5,475.64,356.3,475.64,356.3,476.54Zm-1.4-23.7h-.6a.27.27,0,0,0-.3-.3C354,452,355.4,452.14,354.9,452.84Zm0-40.5c.7-1.3-.2.4,0,0Zm-.8,21.4Zm-.3-57.4c0-.9,1.2.2,0,0Zm-.6,96.8c-.1.4-.5.4-.6.8-.3,0-.2-.5-.3-.8Zm-.3,14.3c.1-.8,1.2.3,0,0Zm3.7,7.6a3.25,3.25,0,0,1-3.7.8C354,495.44,355.6,495.54,356.6,495Zm-.6-31.2v-.6h.6v.6Zm.6-36.3h.8v.8C356.7,428.54,356.4,428.24,356.6,427.54Zm.6-35.5Zm3.1,78.6c-.2.4-.2,1.1-1.1.8C359.4,471,359.6,470.54,360.3,470.64Zm1.1-62.2a1,1,0,0,1-1.7,0C359.8,407.74,361.2,408.14,361.4,408.44Zm-2-14.4c.4-.9,1.5.3,0,0Zm1.4,55.7c-.3,0-.2-.5-.3-.8h.8C361.3,449.34,360.9,449.34,360.8,449.74Zm-.5,10.7c.3-.8,1.5.3,0,0Zm.8-14.6h-.6v-.6h.6ZM360,432c.3-.9,1.5.3,0,0Zm.3,64.2c-.1.5-.1,1.2-.8,1.1C359.3,496.64,359.5,496.14,360.3,496.24Zm.7-12.4v.8C359,485.14,359,483.44,361,483.84Zm-.2-7c.8-.2,1.1-1,2.3-.8C363.3,477.14,361.8,476.74,360.8,476.84Zm1.2-76.3c1.3.5-.1,1.8-1.4,1.4C361.1,401.54,361.9,401.34,362,400.54Zm-1.2-29.6c.4-.8,1.5.3,0,0Zm1.2,94.3c0-.8,1.1.3,0,0Zm3.6-63.6c-.2.4-.4.9-1.1.8C364.4,401.74,365.1,401.74,365.6,401.64Zm-1.1-9Zm0,81.1c-.3.7-.5,1.4-1.7,1.1C362.8,473.84,363.8,473,364.5,473.74Zm.5-55.5a.87.87,0,0,1-.8.6C364.1,418.24,364.6,418.24,365,418.24Zm-2.5,42.2a.87.87,0,0,1,.8-.6C363.5,460.54,363,460.44,362.5,460.44Zm.6,24.8c1.6-1.2,2.1-3.5,3.9-4.5C366,482.44,365.4,484.74,363.1,485.24Zm2.2-24.5h-.6v-.6h.6Zm-.3-52.6c-.9-.5.6-.9.6-1.4C366.5,407.14,365,407.64,365,408.14Zm.6,9.5c.6-.1.9.1.8.6h-.8Zm0-58.5c.1-.8,1.2.3,0,0Zm.3-92.3c.5,0,.6,1.8-.3,1.4A1.83,1.83,0,0,1,365.9,266.84Zm-1.9,3.6c1-.4,1,1.3,0,.8Zm-.1,63.4c.4-.9,1.5.3,0,0Zm-.3,58.8c.5-.1.5.3.8.3-.1.2-.3.3-.3.6h-.6A2.77,2.77,0,0,0,363.6,392.64Zm.3,21.9Zm0,35.8c.1.9-.6.9-1.4.8C362.8,450.64,363,450.24,363.9,450.34Zm-.5-183.8Zm-1.2,14.1c-.1-.2.2.1,0,0Zm0,96.8c.7,0,.1,1,0,1.1C361.5,378.54,362.2,377.64,362.2,377.44Zm.3,7.6c-.2-.2-.3-.5,0-.6h.6c-.5.4-.4,1.3-1.4,1.1C361.5,385,362.1,385,362.5,385Zm-.8-5.9Zm-1.2-139.9c.1-.9,1.2.3,0,0Zm0,1.7Zm1.2,27.8c-1.2.9-2.4-.3,0,0Zm-.3,70.7c-.2.4-.4.9-1.1.8C360.2,339.54,360.9,339.54,361.4,339.44Zm.3,63.3c1.4.4-.9,2-1.7,1.1C360.1,403,361.3,403.34,361.7,402.74Zm-2-154.8c.1-.8,1.2.3,0,0Zm-.6-12.7c.1-.8,1.2.3,0,0Zm0,187.5Zm-.5-128.3c.7-1.1.4.9,0,0Zm2.2,128.9c-.1,1.3-2.1,2.1-2.2.3C359.6,424.24,359.4,423,360.8,423.34ZM358,425c-.1-.2.2.1,0,0Zm0-188.9c.1.6-.4.5-.8.6A.7.7,0,0,1,358,236.14Zm-.8,21.4c-.1.4-.5.4-.6.8C355.9,258.24,356.6,257.24,357.2,257.54ZM355.5,327c.3-.9,1.5.3,0,0Zm-.9-72.1h.8v.8C354.7,256,354.5,255.74,354.6,254.94Zm.3,72.7c.1-.9,1.2.2,0,0Zm.6,22.8c-.2.6-.8,1.1-1.4.6C354.1,350.34,354.8,350.34,355.5,350.44Zm-.9,5.3c0,.7-.9.6-1.7.6C352.7,355.34,354.1,355.94,354.6,355.74ZM352.7,289c0-.8,1.1.3,0,0Zm.2-25.9c0,.6-.2.9-.8.8C352,263.34,352.3,263.14,352.9,263.14Zm-.8,130.1c.1.6-.4.5-.8.6C351.4,393.44,351.6,393.14,352.1,393.24Zm-.9,25.1Zm1.2,22.4c-.3,2.7-2.7.2,0,0Zm0,14.7c0,.8-.7.8-1.4.8C350.9,455.44,351.7,455.44,352.4,455.44ZM351,461h.6v.6H351Zm-2-11.3Zm-.6,15.5c.7.7,0,2.5-.8,2.5A18.29,18.29,0,0,1,348.4,465.24Zm-7.6,23.4c.6-.1.9.1.8.6h-.8Zm-1.1,1.7c.1-.9,1.2.2,0,0Zm-7.9,5.3c.1-.8,1.2.3,0,0Zm-20.5,23.9a3.06,3.06,0,0,1,.8-2C313,517.34,312.1,519.74,311.3,519.54Zm2.2-2.5c.9-.8-.7.9,0,0Zm1.2-.8c-.1-.6.4-.5.8-.6A.87.87,0,0,1,314.7,516.24Zm1.4-4c.3-.8,1.5.3,0,0Zm.5,5.1c1-.7-.6.9,0,0Zm2.3-4.5c-.3-.2-.3-.6-.8-.6a1.91,1.91,0,0,0,.3-.8c.9.2.8-.5,1.7-.3.2.2.2.8.6.8C320.3,512.94,318.5,510.94,318.9,512.84Zm.6-3.1c.2-1,1.2-1.2.6-2.3C321.1,507.44,320.8,510.34,319.5,509.74Zm5-1.4c.1-1.3,2.9-2.5,3.4-.8C326.1,507.14,326.2,508.64,324.5,508.34Zm4.2-.6Zm.6-.8c.1-.9,1.2.2,0,0Zm3.7-.6c-.7.2-1.2.7-2.2.6,1.9-.2.9-3.2,2.8-3.4.1-.8-1-1-.3-1.7C335.6,502.84,332.3,504.24,333,506.34Zm1.9-14.6c-.7-.1,0-1.1.6-.8C335.4,491.24,335,491.34,334.9,491.74Zm4.5-1.4c-.1.5-.5.6-1.1.6C338.4,490.34,338.8,490.24,339.4,490.34Zm-.8,3.1a4.49,4.49,0,0,1,2.3-1.4C340.3,492.64,339.4,493.94,338.6,493.44Zm2.2,4.2c-.8-.3.1-1.1.8-.8C342.1,497.74,340.7,496.94,340.8,497.64Zm1.7-14.7c.1-.8,1.2.3,0,0Zm.6,4.8v-.6c.6-.1.9.1.8.6Zm1.7-4.8a.87.87,0,0,1,.8-.6C345.5,482.74,345.3,483,344.8,482.94Zm1.1-1.1c-.7,0-.1-1,0-1.1C346.6,480.74,346,481.64,345.9,481.84Zm.9-1.4c-.4-.1-.2-.7-.3-1.1h1.1C347.8,480.24,346.9,479.94,346.8,480.44Zm1.4-1.4c-.2-.8.6-.6.6-1.1C349.4,478.24,349.4,479.24,348.2,479Zm1.4-3.3h1.1C351,476.74,349.1,476.74,349.6,475.74Zm1.1-9.4c-.2-1.2.4-1.4,1.4-1.4A1.51,1.51,0,0,1,350.7,466.34Zm1.4,19.5c.1-.9,1.2.2,0,0Zm-.8-10.2c.2-.6,1.9-1.3,1.7,0A1.35,1.35,0,0,1,351.3,475.64Zm2.5,26.2c-.1.4-.7.2-1.1.3C352.8,501.74,353.4,501.94,353.8,501.84Zm-.3,20c.4-.8,1.1-.7,1.4-.8C355.6,521.34,354.5,522.14,353.5,521.84Zm1.5-1.1v-.8C356,519.44,356,521.14,355,520.74Zm.2-11c.3-.9,1.5.3,0,0Zm.8-11.8c-.1-.6.2-.7.3-1.1a1.14,1.14,0,0,0,.8.3C357.3,497.84,356.8,497.94,356,497.94Zm.6,3.6c.1-.8,1.2.3,0,0Zm.6,10.7c-.2-.9.8-.5.6-1.4.5.9.8.8,2,.6C359.5,512.44,358,512.64,357.2,512.24Zm1.9-13.2c.3-.5,2.6-1.5,2.5-.6C360.3,498.14,360.5,499.34,359.1,499Zm2.9-1.4c.2-.6.7-.8,1.4-.8C363.7,497.94,362.5,498.14,362,497.64Zm2.5-4.5c-.1-1.1.9-2,1.7-1.4C365.7,492.24,365.4,493,364.5,493.14Zm1.1,18.6a1.41,1.41,0,0,1,1.4-1.1c-.8.8.3.6.3,1.4C366.6,512,365.9,512,365.6,511.74Zm0-53.8v-.8c.7-.1,1.2-.5,1.7,0C367.1,457.74,366.6,458,365.6,457.94Zm.6-6.5c.2-.4.4-.9,1.1-.8C367.4,451.34,366.7,451.34,366.2,451.44Zm3.4-89.5c.7.1,0,1.1-.6.8C368.8,362.14,369.5,362.44,369.6,361.94Zm-.6-2c0-.8,1.2.3,0,0Zm3.1,11c-.2.4-.7.6-1.4.6C370.6,370.74,371.8,370.64,372.1,370.94Zm-.9-54h-.6v-.6h.6Zm1.2,12.1h-.8v-.6C372.1,328.34,372.4,328.54,372.4,329Zm-.9-23.4c.1-.8,1.2.3,0,0Zm2.8,45.1c0,.7-.9.6-1.7.6C372.7,350.54,373.6,350.74,374.3,350.74Zm-1.4-18.6Zm.9-58.6c.1-.5.6-.7.6-1.4C375.5,272,374.5,273.74,373.8,273.54Zm.3,7.3c0-.5.3-.6.3-1.1C374.8,279.64,374.8,281.34,374.1,280.84Zm.5,2.9c-1.2,1-1.1-.8,0,0Zm-.5,12.9a.87.87,0,0,1-.8.6C373.3,296.84,373.6,296.64,374.1,296.64Zm1.9,45.9c.1-.9,1.2.3,0,0Zm.3-50.1c.1-.9,1.2.3,0,0Zm1.7,74.9c.2,1.3-2,.9-2,0C376.7,366.64,377.1,367.44,378,367.34Zm-.8-72.4c.5-.1.5,1.6-.3,1.1C376.8,295.54,377.2,295.54,377.2,294.94Zm.8-27.8c.1.8-.6.9-.6,1.7C376.4,268.54,377.2,267.14,378,267.14Zm1.7,62.7Zm0-16.9Zm-.3,30.4c.5-1,.9.9,0,0Zm.8,23.1v.6h-.6v-.6Zm-1.6-49.8a.87.87,0,0,1,.8-.6A.76.76,0,0,1,378.6,316.64Zm.2,3.1c.8,0,.5,1.2-.3,1.1C378.4,320.24,378.8,320.14,378.8,319.74Zm2.3,51.2c.6.6,0,1.4-.3,2-.9-.3.4-1.1-.3-1.4-1.2-.1-1.4.6-2.3.8C378.4,371,380.2,371.54,381.1,370.94Zm.3-42.2c-.1.5-.5.6-1.1.6C380.3,328.84,380.7,328.64,381.4,328.74Zm-1.2-32.1a.87.87,0,0,1,.8-.6C381,296.44,380.7,296.64,380.2,296.64Zm2,13.5c.7,0,.1,1,0,1.1C381.4,311.14,382.5,310.64,382.2,310.14Zm0-54.6Zm0,75.2c-.1-.2.2.2,0,0Zm1.1,7.8a1.15,1.15,0,0,1-1.7.3C381.7,338.14,383,338.24,383.3,338.54Zm4-61Zm-.6,80.2c.1-.9,1.2.3,0,0Zm-1.4,12.1c.6-1.4,2-1.9,2-3.9C389.4,366.84,386.8,369.24,385.3,369.84Zm6.8-3.4c1.4.4-.1,2.6-.8,1.7C391.2,367.24,391.8,367,392.1,366.44Zm-.3-40.2c.3-.9,1.5.3,0,0Zm3.9,53.7c-.4.8-.6,1.8-2,1.7C394.3,381,394.7,380.14,395.7,379.94ZM394,325Zm.6-19.4c.9-.7-.7,1,0,0Zm3.9,64.8c-.3.7-1.1-.4-2,0-.1-.9,1.1-.6,1.1-1.4C399,369,397.2,370.54,398.5,370.44Zm.6,41.6c-.1.9-1.1,1.1-1.4.3C397.7,411.74,398.7,412.24,399.1,412Zm-1.4-9.8a.87.87,0,0,1,.8-.6C398.7,402.24,398.1,402.14,397.7,402.24Zm.3-9.3c.3-.9,1.5.3,0,0Zm.5-1.2Zm-3.3,12h2C397,404.74,395.3,404.74,395.2,403.74Zm1.7,49.1h-.8v-.6C396.6,452.24,396.9,452.34,396.9,452.84Zm-2-12.1c0-.8,1.2.3,0,0Zm0-51.8c0-.8,1.2.3,0,0Zm.9-9.6a.31.31,0,0,0,.2-.1A.31.31,0,0,1,395.8,379.34Zm1.1,49.9h.6v.6h-.6Zm-.6-80.5v-.6h.6v.6Zm-1.1-67c0-.8,1.3-.7,1.7-.3C396.5,281.84,395.6,282.24,395.2,281.74Zm-1.4,61.1h-.6v-.6h.6Zm-.6,22.5c.1-.9,1.2.3,0,0Zm.6,21.9c0,.9-.7,1-1.4,1.1C392.2,387.34,392.8,387.14,393.8,387.24Zm-5.7,34.1c.1-.8,1.2.3,0,0Zm0,51.2c.1-.8,1.2.3,0,0Zm0-64.4c.1-.9,1.2.2,0,0Zm.3-13.3c0-.7.9-.6,1.7-.6C390.1,395,389.2,394.84,388.4,394.84Zm2.3,13.6c0,.7-.4.9-.6,1.4C389.5,409.54,389.8,408,390.7,408.44Zm-.3-4.6Zm-.6,16.7a.87.87,0,0,1-.8.6C389.1,420.74,389.3,420.44,389.8,420.54Zm-1.1,46.7c.5-1,.9.9,0,0Zm.3-32.1c.2-.2,1.3-.7,1.4,0C390.8,436,388.5,436,389,435.14Zm1.4,19.7c-.2.4-.4.9-1.1.8C389.2,454.94,389.8,454.94,390.4,454.84Zm.3,10.1c-.2.4-.4.9-1.1.8C389.8,465.44,390,464.94,390.7,464.94Zm.5-16.9c-.6.9-1.8-.3,0,0Zm-.3-41.3c-.1-.6.4-.5.8-.6C391.7,406.44,391.4,406.74,390.9,406.74Zm.9-21.7c.9-.7-.7.9,0,0Zm0,67.8c0-.8,1.2.3,0,0Zm.3,2.8c0-.8,1.1.3,0,0Zm-1.2-183.5c.4-.8,1.5.3,0,0Zm.3,114.6c-.2,1-1.6,1.6-3.4,1.4.1-1.7,2.4.6,2.3-1.4Zm-1.9-30.1c.1.6-.4.5-.8.6A.61.61,0,0,1,389.3,356.64Zm-.9-73.5c.5.2,0,.5,0,.8C387.9,283.74,388.4,283.44,388.4,283.14Zm-.6-15.8c.2-.4.9-.4,1.4-.6C389.2,267.44,388.5,267.44,387.8,267.34Zm.3,110.1c.4-.9,1.5.3,0,0Zm.3-11.5c.2-.4.4.1,1.1-.3.2.6-.5.4-.6.8C388.7,366.34,388.8,365.94,388.4,365.94Zm-.6-112.4c.5-.4.7-1,1.7-.8C389.5,253.54,388.5,253.44,387.8,253.54Zm-.2-6.4c.7-1.1.4.9,0,0Zm-1.2,175c.1-.8,1.2.3,0,0Zm.9,22.8v.8h-.8C386.4,445.24,386.7,444.94,387.3,444.94Zm-1.4-44.1c-.2-.6.5-.4.6-.8C387.1,400,386.5,401,385.9,400.84Zm.3.2a.93.93,0,0,1-1.4.3C384.7,400.74,385.7,401.24,386.2,401Zm.2,26.2c.1.7-.6.7-1.1.8C385.6,427.64,385.5,427,386.4,427.24Zm0,36.3c0,.8-.6,1.4-1.1.8C385.2,463.64,385.9,463.64,386.4,463.54Zm-1.1-23.3c.1-.9,1.2.2,0,0Zm0-3.1c.2-.6.7-.8,1.4-.8C386.5,436.84,386,437,385.3,437.14Zm1.1,24.5h.6v.6h-.6Zm1.4,5.9c.1.7-.4.9-1.1.8C387,467.94,386.9,467.24,387.8,467.54Zm-.5-31.3v-.6h.6v.6Zm-2.3-65.8c.1-.9,1.2.2,0,0Zm.3,9.5c.3,0,.2.5.3.8h-.8C384.6,380.14,385.3,380.44,385.3,379.94Zm-.5-16.3c-.2-.1.1.2,0,0Zm.2,47.6c-.5.4-.6,1.3-1.4,1.4v-1.4Zm-1.1,39.4c-.3-.8.6-.5,1.1-.6C385,450.54,384.5,450.74,383.9,450.64Zm0,14c.1-.8,1.2.3,0,0Zm.3-39.6h0C384.1,424.94,384.2,424.94,384.2,425Zm-12.7,25.3c-.4,1.1-1.6-.1,0,0Zm-.3-31.2c-.1-.2.2.1,0,0Zm.3,54.3c-.1.4-.5.4-.6.8C370.3,474.14,370.9,473.14,371.5,473.44Zm0,5.6c.4-.9.7,1.1,0,0Zm-.3-87.8c.3-.5.5-1,1.4-.8C372.8,391.24,372,391.24,371.2,391.24Zm.6-34.4c.1-.8,1.2.3,0,0Zm.3-9c-1.1,1.2.7-.8,0,0Zm2.5,24.5a2.12,2.12,0,0,1-2.8,1.7A26.06,26.06,0,0,1,374.6,372.34Zm-1.4-16.6c1-.7-.7,1,0,0Zm0,83.3c.1-.8,1.2.3,0,0Zm0,22.3c-.7.1-1.2-.1-1.1-.8C372.8,460.34,373.5,460.34,373.2,461.34Zm.3-34.1Zm0,19.4c1.2.2-.3,1.7,0,0Zm-.6-56.3c-.3-1,1.3-.2,1.1-1.1C374.6,389.44,373.6,390.44,372.9,390.34Zm0-15.2c.4.9-1.6,1.4-1.4.3A2.65,2.65,0,0,1,372.9,375.14Zm1.4,101.1a2.37,2.37,0,0,1-2.3,1.1C372.4,476.54,373.3,476.34,374.3,476.24Zm-.2-63.3c0-.9,1.1.2,0,0Zm3.3,2.5h-.6v-.6h.6Zm0,3.1c.1-.9,1.2.3,0,0Zm.3,6.2a.6.6,0,0,0,.3.6c-.3.5-.9.6-1.7.6C376.3,424.94,377,424.84,377.7,424.74ZM376,416c.2.1.3.3.6.3C376.4,416.94,375.3,416.44,376,416Zm0,31.5v.8h-.8C375.1,447.74,375.4,447.44,376,447.54Zm-1.4-14.7c-.1-.5.3-.5.3-.8C375.4,431.94,375.3,433.34,374.6,432.84Zm1.4,27.6Zm.3-58.8c-.6.9-1.8-.3,0,0Zm-.6,23.1c-.2.4-.6.5-1.1.6C374.7,424.74,375.1,424.64,375.7,424.74Zm-.8-7.3c-.1-.2.2.1,0,0Zm0-12.4c.4-1,.7,1.1,0,0Zm-.6-18.9v-.6c.6-.1.9.1.8.6Zm2.3,87.3c0,.7-.4.9-.6,1.4-.7,0-1.4,0-1.7-.3C375.2,474.24,375.4,473.34,376.6,473.44Zm-1.7,7.9c.3-.9,1.5.3,0,0Zm2.5,2.8c.7,1.5-.9,3-2.8,2.8C375.7,486.14,377.3,485.84,377.4,484.14Zm-.5-12.7c.3-.9,1.5.3,0,0Zm.5-18a1.14,1.14,0,0,0-.8-.3c.1-.5.5-.6,1.1-.6A2.39,2.39,0,0,0,377.4,453.44Zm-.2-11.6c.7-1,.4,1,0,0Zm-.6-10.1c.3-.9.5-.1,1.4-.3C377.6,432.34,377.2,432.34,376.6,431.74Zm2.2,19.2c.2.8-.6.6-.6,1.1C377.6,451.84,378.1,450.64,378.8,450.94Zm-.5-20.9v-.6c.6-.1.9.1.8.6Zm0-32.1c.3-.8,1.5.3,0,0Zm.5,3.4c.1-.8,1.2.3,0,0Zm1.7,1.7c-.1,1.1-1.2,1.2-2.3,1.4C378.5,403.44,379.8,403.54,380.5,403Zm1.7-46.2c-.1.7-.8.6-1.1.3C381.2,356.74,381.8,356.94,382.2,356.84Zm.3-4.5c-.2.4-.9.4-1.4.6C380.8,352,382,352.54,382.5,352.34Zm-.6,72.7c.1-.7.8-.6,1.1-.3C383,425.14,382.4,424.94,381.9,425Zm.9,21.6c.8-1,.9.9,0,0Zm-.6-76.2c-.4-.1-.2-.7-.3-1.1C382.6,369.34,382.6,370,382.2,370.44Zm-.8,14c.3-.8,1.5.3,0,0Zm.5,3.1c0,1-1,.8-2,.8C380.2,387.64,380.9,387.44,381.9,387.54Zm-.8,28.5c0-.9,1.2.2,0,0Zm0-5.1Zm.8,38.3c1,.7-1.4.6,0,0Zm-.2-18.3c0-.9,1.1.2,0,0Zm-1.7-2.3c-.7.9-1.8-.3,0,0Zm.8,19.4c-.4.3-.7.8-1.4.8A1.68,1.68,0,0,1,380.8,448Zm.3,9.6c.8.5-.2,1.7-1.1,1.4C379.8,458.14,380.8,458.24,381.1,457.64Zm1.1,4.5c0,.7-.9.6-1.7.6A1.05,1.05,0,0,1,382.2,462.14Zm-.3-35.7c-.2-.8.6-.6.6-1.1C383.1,425.34,382.6,426.64,381.9,426.44Zm1.7,24.7c-.1.6-.8.6-.8,1.1C382,451.94,382.8,450.84,383.6,451.14Zm-.8-34.9c0-.7.5-.8.3-1.7C383.9,414.64,383.9,416.54,382.8,416.24ZM381.4,365c-.1-1.4,2.8-1.4,2.8-.3C382.8,364.54,382.4,364.44,381.4,365Zm1.9-93.7Zm-2.8,60.2c.6-.1.7.2,1.1.3C381.7,332.34,380.1,332.34,380.5,331.54Zm.6-41.9c0-.9,1.2.2,0,0Zm-2.5,91.7c.3.9-.9.4-1.4.6C377.2,381.34,377.9,381.34,378.6,381.34Zm-1.7-6.7V374c.6-.1.9.1.8.6Zm0,5.9a1.91,1.91,0,0,0-.3.8c-.6,0-.9-.2-.8-.8Zm-.6,4.8a.87.87,0,0,1-.6-.8C376.3,384.34,376.3,384.84,376.3,385.34Zm-.6-1.7Zm.6,4.8v.6h-1.4C375,388.54,376.1,387.74,376.3,388.44Zm-2.2-11.6c-.4-1.2.9-.8,1.1-1.4C376.4,375.84,374.8,376.74,374.1,376.84Zm.2-5.6c.4-.9,1.5.3,0,0Zm-1.7-29.3c-.8,1.1-.9-.8,0,0Zm-1.1,10.2c.7-1.1.4.9,0,0Zm0,1.6Zm-.8,57.5c.3-.9,1.5.3,0,0Zm.5,17.7a.87.87,0,0,1-.8.6C370.3,428.94,370.8,428.94,371.2,428.94Zm-2.5,20.8c.1-.8,1.2-.6,1.7-1.1C370.4,449.54,369.6,449.74,368.7,449.74Zm1.1,27.1c-.1-.2.2.1,0,0Zm-.5,16.3v-.6h.6v.6Zm0,4.5c0-.9,1.1.2,0,0Zm-1.4-40.3c-.1-1.2.9-1.1,1.7-1.4C369.4,456.84,368.9,457.44,367.9,457.34Zm.6-66.4.3-.3a.75.75,0,0,0-.3.3h0l-.1.1C368.4,390.94,368.4,390.94,368.5,390.94Zm-.1-12.9c.1-.9,1.2.2,0,0Zm1.2,16.8c-.3.5-.9.6-1.7.6A1.15,1.15,0,0,1,369.6,394.84Zm-1.2,56.1c-.7.9-1.3-.8,0,0Zm0,7.6c.7.3-.2,1.2-.8,1.1C367.7,459,368.1,458.84,368.4,458.54Zm.3-7.9c.7-1.1.4.9,0,0Zm.9-31.3c.4.1.4.5.8.6C370.3,420.64,369.3,419.94,369.6,419.34ZM369,367c.3,1-1,.6-1.1,1.1C367.1,367.74,368.6,367.24,369,367Zm-1.1,65.8v.6h-.6v-.6Zm0,47.6c-.6,0-.1-1-.3-1.4.7-.1.6.5,1.4.3C369.3,480.34,368,479.84,367.9,480.44Zm2.2,21.1a1.72,1.72,0,0,0-1.7,0C368.3,500.94,370.4,500.54,370.1,501.54Zm-.8,10.2a.87.87,0,0,1,.8-.6C370.2,511.74,369.7,511.64,369.3,511.74Zm2.2-5.1c-1.5,1.4-3-.1,0,0Zm-.5-14.4c1.3-.8-.8.9,0,0Zm-1.7-1.4c.1-1.8,1.6-.6,2-2,.5-.1.5.3.8.3A3,3,0,0,1,369.3,490.84Zm2.8.9c-.5-.2,0-.5,0-.8C372.6,491,372.1,491.34,372.1,491.74Zm.9-1.4a1.69,1.69,0,0,0-.2.5.77.77,0,0,1,.1-.3c.1,0,.1-.1.1-.2a.35.35,0,0,1,.1-.2A.31.31,0,0,1,373,490.34Zm-.6-5.9c.2-.6,1.6-.1,2.3-.3C374.4,484.74,373,484.24,372.4,484.44Zm1.4,3.9c0-.7,1-.7,1.4-.3A.93.93,0,0,1,373.8,488.34Zm2.2,10.4c.1-.8,1.2.3,0,0Zm.9,4.2a.87.87,0,0,1,.8-.6A.7.7,0,0,1,376.9,502.94Zm.3-7.6c-.1-.6.2-.9.8-.8C378,495.14,377.8,495.44,377.2,495.34Zm.8,5.7c.2-1,1.2-1,1.7-1.7C380.5,500.14,378.9,501,378,501Zm1.4-38.3c.1-.9,1.2.2,0,0Zm.8,30.4a.87.87,0,0,1,.8-.6C381.2,493.14,380.7,493.14,380.2,493.14Zm0-1.4a.87.87,0,0,1,.8-.6C381.2,491.74,380.7,491.64,380.2,491.74Zm-.2-5.4c0-.6.8-.4.6-1.1.4.2.9.4.8,1.1Zm1.4-7.3c-.3-.9.9-.4,1.4-.6C382.7,479.14,382.1,479,381.4,479Zm1.1-18.6c.1-.8,1.2.3,0,0Zm.6,31.6c.3-.9,1.5.3,0,0Zm.5-14.1c.7-1.1.4.9,0,0Zm.9,21.1v-.6c.6-.1.9.1.8.6Zm-.3-7.9c.2-.4.4-.9,1.1-.8C385.4,491,384.7,491,384.2,491.14Zm2-11.4h-1.1c0-1,1-1,2-1.3v.8a2.26,2.26,0,0,1-1-.3C386.1,479.14,386.3,479.34,386.2,479.74Zm.2,15.6c.7-1.1.5,1,0,0Zm.6-15.2c.1-.7.8-.6,1.1-.3C388.1,480.54,387.4,480.54,387,480.14Zm1.4,5.7a1.91,1.91,0,0,0,.8.3,1.48,1.48,0,0,1-1.7.8C387.6,486.34,388.3,486.34,388.4,485.84Zm.6,14.3c0-.9.6-1.2,1.7-1.1A2.83,2.83,0,0,1,389,500.14Zm.8-7.9c-.9-.4.8-1.2,1.1-.6C391.1,492.44,389.6,491.54,389.8,492.24Zm.6-13.2c-.4-.4.8-1.8,1.2-2.3a1.87,1.87,0,0,1,.4.3v.6C391,477.64,391.1,478.74,390.4,479Zm1.1,17.5c.2-.6.4-1.1,1.4-.8C393,496.54,392.3,496.54,391.5,496.54Zm1.7-20.3Zm-.6-43.4c-.8.4.7-1,.6-1.7h1.1C393.9,431.94,392.8,431.94,392.6,432.84Zm2,51.3c.9-.8-.8.8,0,0Zm1.1-11.3a.87.87,0,0,1-.8.6C394.8,472.84,395.3,472.84,395.7,472.84Zm-.3,15.8c1-.7-.6.9,0,0Zm0-7.6c1.7.3-1,1.3,0,0Zm-.5-19.4a1.14,1.14,0,0,1-.3-.8,2,2,0,0,1,1.4-.3C396,461.14,395.6,461.54,394.9,461.64Zm.3-3.7v-.8c.6-.1.7.2,1.1.3A1.29,1.29,0,0,1,395.2,457.94Zm1.1,18.6c.9-.3,1,.1,2-.3C398.7,477.24,396.1,477.54,396.3,476.54Zm2-1.2c-.2-.1.1.2,0,0Zm.2-2.5c.9-1,1,.9,0,0Zm-1.4-14.6a2.27,2.27,0,0,1,2.5-.3C399.4,459,398,458.24,397.1,458.24Zm2.6,13.8c-.1-.2.2.2,0,0Zm-.6-16.6c.2-.6.8-.7,1.4-.8C400.3,455.14,399.8,455.34,399.1,455.44Zm1.1-2.9c.1-.8,1.2.3,0,0Zm-.5-8.7a1.1,1.1,0,0,1,1.4-1.1C400.8,443.24,400.7,444,399.7,443.84Zm.5-87.2c.1-.7.8-.6,1.1-.3C401.3,356.74,400.7,356.54,400.2,356.64Zm.3,49.8c.1-.9,1.2.3,0,0Zm-.5,15.7c.7-1.1.4,1,0,0Zm.8-75.4c-1.2.9-2.4-.3,0,0Zm.3,82.2c.3-.9,1.5.3,0,0Zm-.3-138.8c.8-1,.9.9,0,0Zm.3-18.8Zm.5,116.8a.87.87,0,0,1,.8-.6C402.6,388.14,402.1,388.14,401.6,388.14Zm.9,46.4h-.6v-.6h.6Zm.8-28.4c.1.6-.4.5-.8.6A.7.7,0,0,1,403.3,406.14ZM404.7,282v.6h-.6V282Zm-.2-12.1c.1.1-.2-.1,0,0Zm.8,3.3h-.6v-.6h.6Zm-.3,59.4c.7-1.1.4,1,0,0Zm-.5-10.4c.3-.8,1.4.3,0,0Zm-1.7,62.2c.2-.9.4-1.6,1.4-1.7A1.52,1.52,0,0,1,402.8,384.44Zm.5,1.2c-.1-.2.2.1,0,0Zm-.5,1.4c.7-1.1.4.9,0,0Zm1.1-52.1c.2-.8.6.3,1.1,0C405,335.64,404.1,335,403.9,334.94Zm.6-41.1c.1.9-.9.6-1.4.8C402.9,293.84,403.6,293.74,404.5,293.84Zm-.9,59.4a.87.87,0,0,1-.8.6C402.6,353.14,403.2,353.24,403.6,353.24Zm-.6,126.6c.1-.8,1.2.3,0,0Zm.9-1.6h-.6v-.6h.6Zm-.6-62.5c.4-.5.6-1.1,1.4-1.1C404.4,415,404.2,415.74,403.3,415.74Zm1.2-15.5a.87.87,0,0,1,.8-.6C405.4,400.24,404.9,400.24,404.5,400.24Zm.8,39.1c.4-.9.7,1.1,0,0Zm2.2,16.1c-.1.5-.5.6-1.1.6C406.5,454.94,406.8,455.24,407.5,455.44Zm-.8-79.4c.4-.9.7,1.1,0,0Zm5.6-86.1c.2.9-.5,1-1.1,1.1C411,290,411.7,289.94,412.3,289.94Zm-1.1-2Zm.3,143c.3-.9,1.5.3,0,0Zm.3-113.5c.1.6-.4.5-.8.6A.78.78,0,0,1,411.8,317.44Zm.3,41.1c.1,1-1,.9-1.7,1.1C410.5,358.84,411.3,357.94,412.1,358.54Zm-.9,7.4c.1.6-.2.9-.8.8C410.3,366.14,410.6,365.84,411.2,365.94Zm-.3,2.2c.4.5,1.1.6.8,1.7-1.1-.3-.8.8-2,.6C409.1,369.54,410.6,368.94,410.9,368.14Zm-.5,84.7c.2-.4.4-.9,1.1-.8C411.6,452.74,411.1,452.94,410.4,452.84Zm0,9c.1.2-.2-.1,0,0Zm0-10.7c0-.8,1.1.3,0,0Zm1.1-7.6c-1.6,1.1-1.2-.7,0,0Zm-.3-14.6v.6h-.6v-.6Zm-.3-44.5c.1-.8,1.2.3,0,0Zm-.3,49.6c.1-.9,1.2.2,0,0Zm0-42.8a4.28,4.28,0,0,1-.6,1.7c-.7,0-1.2-.1-1.4-.6C408.7,391.34,409.8,391.34,410.6,391.24Zm-1.9,74.3c.8-1,.9.8,0,0Zm0-48.7c-.2.4.7-1.3,0,0Zm.3,29v-.6c.6-.1.9.1.8.6Zm.8-49v-.3C411.2,395.14,409.2,398.54,409.8,396.84Zm-.3,18c-.1.5-.5.6-1.1.6C408.6,415,409,414.94,409.5,414.84Zm-.8,9.6c.1.7-.4.9-1.1.8C407.8,424.84,408,424.34,408.7,424.44Zm-1.2,41.9ZM405.9,421v-.6h.6v.6Zm-.3-27.6c1.2-1,1,.8,0,0Zm.3,80.8c-.2-.9.7-.6.8-1.1.6,0,.1,1,.3,1.4C406.5,474.54,406.4,474.24,405.9,474.24Zm1.9,14.1c-1.2,1-1-.8,0,0Zm-.3-18a1.68,1.68,0,0,0,.3,2C406.7,473.24,405.2,469.84,407.5,470.34Zm1.5,11.2c.2-.6,1.2-1.1,1.7-.6C410.6,481.74,409.7,481.54,409,481.54Zm1.1-5.3c.4.1.2.7.3,1.1h-.8c-.4-.1-.9-.2,0,0C409.3,476.54,410.1,476.74,410.1,476.24Zm-.3-9.9c-.3.7-.1.6-.3,1.7-1,.2-1.1-.4-2-.3,1.3-.9,2-2.3,4.2-2.3C411.5,466.24,410.6,466.24,409.8,466.34Zm3.1,1.7h-.6v-.6h.6Zm.6-11c-.1-.2.1-.3.3-.3h.6c-.3.3-.3,1-.3,1.7C413.2,458.24,413.9,457.14,413.5,457Zm3.6-115.9a.87.87,0,0,1-.8.6A.7.7,0,0,1,417.1,341.14Zm-.5-55.2c.4-1,.8.9,0,0Zm.5,107c1-.7-.7.9,0,0Zm-1.1-56.6a.87.87,0,0,1-.8.6A.7.7,0,0,1,416,336.34Zm-.3-24.8Zm0,30.7Zm0,65.6c.1-.9,1.2.3,0,0Zm2,8.2c0,1.1-1.7,2-2.3.8A2.82,2.82,0,0,1,417.7,416Zm-1.7-55.2c.1-.9,1.2.3,0,0Zm-.3-57.4c-.1-.6.4-.5.8-.6A.78.78,0,0,1,415.7,303.44Zm.6-16.4c-2,0-.3-1.6,0,0Zm-1.4-3.9c0-.8,1.1.3,0,0Zm.8,87c-.3.5-.5,1-1.4.8C414.3,370.14,415.1,369.54,415.7,370.14Zm0,14.6c-.7.2-.3,1.6-1.4,1.4C414.1,385,414.9,384.94,415.7,384.74Zm-.8,53.5c0-.9,1.1.3,0,0Zm.5,6.7c-.6-.2-2,.5-1.7-.6C414.2,443.94,415.7,443.94,415.4,444.94ZM414.3,472c.1-.9,1.2.2,0,0Zm-.6-10.7c-.2-1.1,1.1-.8,2-.8C415.6,461.94,414.6,460.64,413.7,461.34Zm2.3,16v-.6c.6-.1.9.1.8.6Zm.3-39.4c.1-.4.5-.4.6-.8C417.8,437.24,417.3,438.24,416.3,437.94Zm1.1,37.7a.87.87,0,0,1,.8-.6C418.4,475.74,417.8,475.64,417.4,475.64Zm.8-51.2Zm.9,7.6c.1-.1-.8-.3-.8-.3C418.2,431.34,419.8,431.34,419.1,432Zm1.1,18h-.6v-.6h.6Zm.6-28.4c-.5,1.5-2,.1,0,0Zm-2.6-11c-.5.6-.6,1.7-1.7,1.7.1-1.9,2.5-2.6,4.2-2C420.5,411,418.8,411.14,418.2,410.64Zm-.2-32.1v-.6h.6v.6Zm.8-14.9c.1-.8,1.2.3,0,0Zm.6,28.1c.9-.6-.7,1,0,0Zm-.6,17.2c.4-.9.7,1.1,0,0Zm1.1-25.3c.1-.9,1.2.3,0,0Zm.9-25.6c-1.1,1-2.3-.2,0,0Zm-.9-93.5c1-.7-.6,1,0,0Zm-1.1,86.2a6,6,0,0,1,.6-1.1C420.3,349.64,419.8,350.94,418.8,350.74Zm-.3-85.1c.7-1.1.4,1,0,0Zm0,34.7c.1-.9,1.2.2,0,0Zm.3,43.9c-.1.5-.5.6-1.1.6C417.8,344.24,418.2,344.14,418.8,344.24Zm-1.1-29c0-.9,1.2.3,0,0Zm0,5c.5-.3-.1.1-.4.3C417.4,320.54,417.5,320.44,417.7,320.24Zm1.1,54.9c-.2.9-1.1.4-1.7.3C417.2,374.84,418.3,375.34,418.8,375.14Zm-1.7-107.2h-.6v-.6h.6Zm-1.4-24.8h.6v.6h-.6Zm.9,9.9c-.2.4-.6.5-1.1.6A.65.65,0,0,1,416.6,253Zm-1.4-16.3c0-.9,1.1.2,0,0Zm-.3,4.2c.3,0,.2.5.3.8h-.8C414.4,241.34,414.8,241.34,414.9,240.94Zm1.9,15.5c-.1.9-1.6.4-2.5.6C414.6,256.24,415.8,256.44,416.8,256.44Zm-2.8,56.5c.1-.8,1.2.3,0,0Zm-.5-9c.9-.7-.7,1,0,0Zm-1.7,156.5c0-.6,1-.1,1.4-.3C413.2,460.84,412.2,460.34,411.8,460.44Zm.8-33.2Zm.3-30.7Zm-.3-114c.7-1.1.4,1,0,0Zm-.3-9c1-.7-.6,1,0,0Zm-.5-29.5Zm-.9,2.5c.1-.8,1.2.3,0,0Zm0,23.1Zm-1.4,12.1c.7-1.4,1.9-.2,0,0Zm-3.9,84.4c1.5-.3,2.2-1.4,3.7-1.7A2.68,2.68,0,0,1,405.6,366.14Zm.5-98.2c1.3-1,1.1.8,0,0Zm.3-2.3Zm.6,13.6v.8h-.8C406.1,279.44,406.4,279.14,407,279.24Zm-.9,12.6c-.3,0-.2-.5-.3-.8C407.1,291.24,407,291.44,406.1,291.84Zm.9,72.4h-.6c-.1-.5.3-.5.3-.8C407.3,363.54,407.3,363.84,407,364.24Zm-.3-28.2v-.6h.6v.6Zm-.3-42.5c.7,0,1.4,0,1.7.3C408.1,294.24,406,294.44,406.4,293.54Zm.9-14.9Zm.5-9.3c-1.9.2.2-1.8,0,0Zm-.3-37.2a.87.87,0,0,1-.8.6C406.6,232.14,407.1,232.24,407.5,232.14Zm-1.1,27.1c.7.1,0,1.1-.6.8C405.7,259.44,406.4,259.64,406.4,259.24Zm.3,10.7c-.2.4-.4.9-1.1.8C405.5,270,406,269.84,406.7,269.94Zm-1.1-7.6c-1.3.2-2,1-3.4,1.1,1.4-1.1,2.2-1.3,3.1-2.5C405.9,261.34,405.1,261.54,405.6,262.34Zm-3.4-16.6a1.5,1.5,0,0,1,1.4.3C403.7,246.74,401.7,246.94,402.2,245.74Zm2,2.8c-.1.5-.5.6-1.1.6C402.8,248.24,403.7,248.54,404.2,248.54ZM405,233c0,.6-1.2.1-1.7.3A1.11,1.11,0,0,1,405,233Zm-1.7,11c.4-1,.7,1.1,0,0Zm-1.1-9.6c.2.1.3.3.6.3-.1.2-.3.3-.3.6-.2-.1-.3-.3-.6-.3C402,234.74,402.2,234.74,402.2,234.44Zm.8,49.8c0,.6-1,.1-1.4.3C401.9,283.74,402.7,283.44,403,284.24Zm-2.2-35.7c.1-.9,1.2.2,0,0Zm.6,1.9c.8.4-.1,1.4-.3,1.7C400,251.54,401.8,251.44,401.4,250.44Zm-.9,78.6h.8a1.51,1.51,0,0,1-1.4,1.4C400.1,329.84,400.6,329.74,400.5,329Zm-.5,7c0-.8,1.1.3,0,0Zm-.6-81.3c0-.9,1.2.2,0,0Zm0,172.5c.9-.7-.7,1,0,0Zm-.6-196.5c.1-.8,1.2.3,0,0Zm-1.1,130.4c-.1-.7.6-.7,1.1-.8C398.6,360.64,398.6,361.34,397.7,361.14Zm.8-14.4c0,.6-1,.1-1.4.3C397.4,346,397.7,346.94,398.5,346.74Zm-1.6-98.2h-.6a.27.27,0,0,0-.3-.3C395.9,247.64,397.3,247.84,396.9,248.54Zm-.9,17.1c-.4.5-.6,1.1-1.4,1.1C395,266.34,395.2,265.74,396,265.64Zm-1.1-16.8c-.1-.2.2.1,0,0Zm-.3-18.1c.9-.6-.7,1,0,0Zm-.3,18.9h.6v.6h-.6Zm-.5-16.9c0-.8,1.1.3,0,0Zm0,5.6c-.2-.1.1.2,0,0Zm-.6,24a.76.76,0,0,1-.8.6A.7.7,0,0,1,393.2,262.34Zm-2.3,4.5c-.2-1,1-1,1.4-.6C392.1,266.64,391.6,266.84,390.9,266.84Zm1.2-3.7c0,.9-.6,1.1-.8,1.7C390.6,264.44,390.9,262.64,392.1,263.14ZM390.9,235c1-.7-.6.9,0,0Zm-2.2,140.4c.1-.6.8-.6.8-1.1a1.91,1.91,0,0,0,.8.3C390.1,375.24,389.5,375.44,388.7,375.44Zm1.4-77.9c.2.1-.1-.2,0,0Zm0,18.8Zm-.6,6.2c.7-1.1.4.9,0,0Zm-.2-91.2c.7-1.1.4.9,0,0Zm-.6,7.6c0-.8,1.2.3,0,0Zm0,2.5c.6-.1.9.1.8.6h-.8Zm-.3.9c-.9.8-2.1-.4,0,0ZM387.3,264c.2.8-.6.6-.6,1.1C386.1,265,386.7,263.74,387.3,264Zm-.9-3.1c-.1-.2.2.1,0,0Zm-.5,7.3c1.4-1.1,1.7.8,0,0Zm1.1,13.2v.8C385,282.74,385,281.14,387,281.44Zm-.8,61.7h-.8v-.6C385.9,342.44,386.2,342.54,386.2,343.14ZM385,234.44c.1-.8,1.2.3,0,0Zm.3,7.3c.7.1-.3.7-.3,1.1C384.2,242.64,385.4,242.14,385.3,241.74Zm-1.1,13.8h1.4a3,3,0,0,1-2,1.4C383.7,256.44,384.4,256.44,384.2,255.54Zm.3,96.6c-.2-.1-.3-.1-.3-.2a.1.1,0,0,1-.1-.1.1.1,0,0,1,.1.1A1.44,1.44,0,0,1,384.5,352.14Zm-.6.5Zm3.4,6.8c-1.1.6-1.7,1.7-3.7,1.4C384.4,359.94,385.9,359.74,387.3,359.44Zm-4.2-126.7c0-.8,1.1.3,0,0Zm-.6,1.4c1,.9-.9,1,0,0Zm.6,1.7c-.7-.7-.2.5-1.1.3C381.6,235.34,383.3,234.74,383.1,235.84Zm-.9,3.4c.8.2-.1,1.1-.8.8C380.9,239,382.3,239.94,382.2,239.24Zm-1.1,5.3c1,.8-1.5.7,0,0Zm.6,13.5v.8h-1.1C380.8,258.54,381,258,381.7,258Zm-2.6,2Zm1.1,17.7c0,.9-.7,1-1.4,1.1C378.9,278.14,379.6,277.94,380.2,277.74Zm-1.9-27.5c.8-1.1.9.8,0,0Zm0,12.7h0C378.2,262.84,378.3,262.84,378.3,262.94Zm0,1.9c1.3.7-1.9,1.6-1.7.3C377,264.34,377.9,265.74,378.3,264.84Zm-1.1-19.7c-.2-.1.1.2,0,0Zm-.3,1.7c.4-1,.9.9,0,0Zm0-18.6v.8c-.6.1-.9-.2-.8-.8Zm-.3,5.1Zm-.6-3.4Zm0,.6c-.1-.2.2.1,0,0Zm-.3,3.9c.6-.1.9.1.8.6h-.8Zm.3,17.7c.1-.8,1.2.3,0,0Zm1.4.9a1.44,1.44,0,0,1-1.7,1.1C375.9,253.34,376.8,253.34,377.4,253Zm-1.7,103h-.6v-.6h.6Zm-1.6-7.3v-.6h1.1C375.5,349,374.6,348.64,374.1,348.74Zm0-80c.5-.1.5.3.8.3C375,269.64,373.6,269.44,374.1,268.74Zm-.9-9.5c.2-.4.9-.4,1.4-.6C374.6,259.24,373.9,259.24,373.2,259.24Zm.9-23.7c.2,1-.8.9-1.7.8C372.5,235.74,373.4,235.74,374.1,235.54Zm-2.6,36.9c.1-.8,1.2.3,0,0Zm2,2.8c-.4.7-1.3.8-2,1.1C371.2,275,372.4,275.24,373.5,275.24Zm-2.3-28.7Zm-.8-18c.1-.9,1.2.3,0,0Zm.8,110c.1.6-.2.9-.8.8C370.7,339.14,370.5,338.44,371.2,338.54Zm-1.4-104.1Zm-.2-5.1c-.2-.1.1.2,0,0Zm-.6,121.1c-.9,1-1-.9,0,0Zm-.9-27.6Zm2.9,33.8c-.2,1.2-2,.8-3.4.8A3.41,3.41,0,0,1,371,356.64Zm-4,5.6c.1-.9,1.2.3,0,0Zm6.8-153.4Zm-3.4,3.1c0-1.5,1.9-1.1,2-2.5C373.7,210,372.1,211.94,370.4,211.94Zm2-2.8c-.1-.6.2-.9.8-.8C373.3,208.84,373,209.14,372.4,209.14Zm1.1.5c.2-.4.6-.5,1.1-.6C374.9,209.94,374,209.64,373.5,209.64Zm1.7-.8Zm.5,2c-.1-2.4,2.4,0,0,0Zm-28.6,346.9c.1-.3.3-.4.7-.4Zm-.3-8.9c-.1-.7.6-.7,1.1-.8C348,548.74,347.5,548.94,346.8,548.84Zm2.2-.3a.87.87,0,0,1,.8-.6A.7.7,0,0,1,349,548.54Zm.3-1.9c.2-.4.4-.9,1.1-.8C350,545.94,350,546.64,349.3,546.64Zm1.7-.9c.3-.5.9-.6,1.7-.6-1,.4-.6,2.2-1.4,2.8C350.4,547.64,352.3,545.84,351,545.74Zm1.1,4a1.1,1.1,0,0,1,1.4-1.1C353.2,549.14,353.2,549.94,352.1,549.74Zm1.4-1.5c.1-.5.5-.6,1.1-.6C354.6,548.24,354.1,548.34,353.5,548.24Zm1.1,2.9c-.2-.8,1.3.2,1.1-.6C356.4,550.74,354.9,551.74,354.6,551.14Zm10.2-4.5c0-.9,1.1.2,0,0Zm1.4-10.7c.3-.5.9-.6,1.7-.6C367.9,536.24,366.6,536.34,366.2,535.94Zm6.2-1.7c-.1-.7.6-.7,1.1-.8C373.6,534.14,373.1,534.34,372.4,534.24Zm0-1.7c.1-.9,2.1-.7,2.5-.3C374.6,532.84,373.1,532.34,372.4,532.54Zm10.1,1.1c-.3-.8.6-.5,1.1-.6C383.6,533.54,383.1,533.74,382.5,533.64ZM430.1,499c1.2.1-.3,1.6,0,0Zm-33.2,20.5c.3-1.2.9-.4,1.7-.8A1.38,1.38,0,0,1,396.9,519.54Zm10.4-2.2c.2-.4.4-.9,1.1-.8C408.5,517.24,407.8,517.24,407.3,517.34Zm6.4-5.1c-.8-.7-1.3.8-2.5.6.3-1.7,1.5-1.1,2.8-1.4A1.49,1.49,0,0,0,413.7,512.24Zm.6-1.1c-.8-.3,0-1.2.8-.8C415.2,510.94,414.3,510.64,414.3,511.14Zm2.3-2c.7-1.1.4,1,0,0Zm2.2,2.3c-.6-.2-.3-1.7.6-1.4C419.4,510.74,418.9,510.84,418.8,511.44Zm1.1-4c-.1-.5.3-.5.3-.8C420.8,506.54,420.6,507.94,419.9,507.44Zm.9,4v-.6c.6-.1.9.1.8.6Zm1.1-5.9c-.2-.6.5-.4.6-.8C423,504.54,422.5,505.74,421.9,505.54Zm5.4.8c-.4-.1-.2-.7-.3-1.1C427.6,505.34,427.6,505.94,427.3,506.34Zm2.8-.3c-.3-.3-.3-1-.3-1.7.9.1,1.1-.6,1.7,0A1.82,1.82,0,0,1,430.1,506Zm3.1-.9-.5.3a1.28,1.28,0,0,1-1.2-.2c.3-.7,1.1-.7,2-.8A2.11,2.11,0,0,1,433.2,505.14Zm1.9-33.1h-.6v-.6h.6Zm8.5-40.8c-.1-.2.2.1,0,0Zm-9.3-9.3c0-.9,1.2.2,0,0Zm0-131.8v-.6h.6v.6Zm.6,156.8Zm.2-94.8h-.6v-.6h.6Zm0-15.2h-.6v-.8c.5-.1.5.3.8.3C435.4,336.54,435.1,336.64,435.1,336.94Zm-.2-51c.3-.8,1.4.3,0,0Zm.5,83c.4-.8,1.5.4,0,0Zm1.4-66.7c-.2.4-.4.9-1.1.8C435.6,302.34,436.1,302.24,436.8,302.24Zm-.8-38c0-.8,1.2.3,0,0Zm2,66.7c0,.6-1.2.1-1.7.3C436.3,330.64,437.5,331.14,438,330.94ZM436.8,289c.9-1,1,.9,0,0Zm3.4-26.4c0,.5-.3.1-.3,1.1h-2.3C438.4,262.74,439.4,263,440.2,262.64Zm-2.2-16.4c.1.2-.2-.1,0,0Zm4.7,43.9c-.1.5-.5.6-1.1.6C441.5,289.84,442.3,289.74,442.7,290.14Zm-.8-17.4Zm0,92.6c.9-.7-.7.9,0,0Zm.3,105.5c.2.9-.5,1-1.1,1.1C441.1,471.34,441.2,470.64,442.2,470.84Zm-.3,14.4v.6h-.6v-.6Zm-1.1-117.1c0-.8,1.1.3,0,0Zm-.6,33.8c.1-.9,1.2.2,0,0Zm.3,9.3c.2.2-.1-.2,0,0Zm-.6-80.8c-.4.5-1.8,1-1.7-.3C439.1,329.94,439.3,330.44,439.9,330.44Zm-.5-51v-.6h.6v.6Zm-.6,90.4c.9-.7-.7.9,0,0Zm.3,43.1c-.1-.5,1.3-.4.8.3h-.6C439.4,412.94,439.2,412.94,439.1,412.94Zm0,48.1Zm.5-62.5H439v-.6h.6Zm-.8,71.5c1.2.1-.3,1.6,0,0Zm1.1,1.1c-.1.7-.2,1.3-1.1,1.1C438.7,471.44,439,471,439.9,471.14Zm-.5-25.6v-.6h.6v.6Zm0-13.2c-.1-.6.2-.9.8-.8C440.3,432,440,432.34,439.4,432.34Zm.5-21.1c1-.7-.7.9,0,0Zm.6-58.6c.7-.8-1.1,1.2,0,0Zm0,34.9c.9-.7-.7,1,0,0Zm-.9-43.6c-.2-.9.5-.8.3-1.7h.8C440.2,342.64,440.6,343.94,439.6,343.94Zm.6-13.8Zm-3.1,78.5c1.2-1,1.1.8,0,0Zm.3,5.1Zm0-72.1c.3.1.2.6.6.6C437.8,343,437.1,342.24,437.4,341.64Zm-1.7,139.1c-.8-.9,1.9-.6,0,0Zm.3-1.4c.7-1.1.4.9,0,0Zm-.3,20c.2-.9.5-1.7,1.4-2C436.7,498,437,499.44,435.7,499.34Zm.3-28.5c-.1-1.1.3-1.8,1.4-1.7C436.7,469.54,437.1,470.94,436,470.84Zm2.8-56.8c-.5,3.2-3,.8,0,0Zm-.3,62.5Zm-.5-5.4c-.2-.1.1.2,0,0Zm-.3,7.3c.2-.4.7-.6,1.4-.6C439,478.54,438.4,478.54,437.7,478.44Zm1.9,13.3H439v-.6h.6Zm1.7,6h-1.4c-.2-2,1-2,2.3-2.2C442.2,496.74,440.4,495.74,441.3,497.74Zm2-40.7c.1-.8,1.2.3,0,0Zm.3.3v.8h-.8C442.7,457.64,443,457.34,443.6,457.34Zm-.9,18.9Zm.9,14.9c.2,1-.8.9-1.7.8C442.1,491.44,442.7,491.14,443.6,491.14ZM442.2,318c-.1-.6.4-.5.8-.6A.7.7,0,0,1,442.2,318Zm.8-29c-1-.1-.2-1.6.6-1.7C442.8,287.94,443.5,288.34,443,289Zm-.3-5.1Zm.6,97.2c-.1-.2.2.1,0,0Zm0-90.7Zm.3,114.3c.7-1.1.4.9,0,0Zm-1.4-132.6c.1-.8,1.5-.4,1.1-1.7C444.3,270.64,443.5,272.54,442.2,272.14Zm1.4-16.6Zm.3-31.8c-.1.4-.7.2-1.1.3C442.8,223.34,443.5,223.34,443.9,223.74Zm-.3,1.7a.68.68,0,0,1-1.1.6C442.5,225.54,442.9,225.34,443.6,225.44Zm-1.1-8.5c.1.2-.2-.1,0,0Zm.2,34.7c-1.9.2.2-1.8,0,0Zm.3,9v.8C441,261.94,441,260.24,443,260.64Zm-1.4,24.8c-.2.4-.7.6-1.4.6C440.4,285.44,441.2,284.94,441.6,285.44Zm-.6-31.3c0,.4.1,1.1-.3,1.1-1.1.4-.1-1.3-1.1-.8C439.6,253.84,440.6,254.34,441,254.14Zm-.2-24.8c0,1-1,.8-2,.8C439,229,439.8,229.24,440.8,229.34Zm-2-5.3c-.1-.9.7-1,1.1-.6C439.9,223.94,439.4,224.14,438.8,224Zm.8-2.5c.1.6-.8.3-.8.8C438,222,438.9,221.24,439.6,221.54Zm-1.1,24.2v-.3a1.09,1.09,0,0,1-.1.5C438.5,245.84,438.5,245.84,438.5,245.74Zm-.3-19.7c-.1-.2.2.1,0,0Zm-.5,6.7c0-.8,1.1.3,0,0Zm-.3-14h0a.6.6,0,0,1-.1.4C437.3,218.94,437.4,218.84,437.4,218.74Zm.6,3.9c.1.6-.8.3-.8.8C436.2,223,437.6,221.94,438,222.64Zm-1.5,1.1c.2,1.2-.9,1.1-2,1.1A2.87,2.87,0,0,1,436.5,223.74Zm-1.4,41.1c.4.2.4.9.6,1.4a2,2,0,0,1-1.4.3C434.1,265.54,435.3,265.84,435.1,264.84Zm-1.7-50.4c-.7.4-.3,1.8-1.4,1.7C432,214.44,432.2,214.84,433.4,214.44Zm-2.5,5.4a1.14,1.14,0,0,0,.8.3c-.1.6-.6.7-.8,1.1C429.8,220.84,431,220.64,430.9,219.84Zm-7.6-2.6Zm0-2.8c0,.6-.7.6-1.4.6C422.1,214.64,422.8,214.64,423.3,214.44Zm-12.4-2.8c-.2.4-.7.6-1.4.6C409.2,211.24,410.4,211.74,410.9,211.64Zm-20-6.2c-.3.5-.5,1-1.4.8C389.5,205.54,390.2,205.44,390.9,205.44Zm-3.3-.6c0-.8,1.1.3,0,0Zm-2.3-1.1Zm-1.4,3.4c.6-.1.9.1.8.6h-.8Zm-.6-10.1c.1-.9,1.2.2,0,0Zm.6-.9c.2-.6.7-.7,1.4-.8C385.4,196.14,384.4,195.94,383.9,196.14Zm11-4.8c0-.8,1.2.3,0,0Zm-4.2,6.5c-1-.5.7-.6.6-1.1C392,196.94,390.6,197.34,390.7,197.84Zm3.1-3.9c-.2-1,.8-.9,1.7-.8C394.9,193.34,394.5,193.74,393.8,193.94Zm3.1-9.9a2.65,2.65,0,0,1,.6-.5A1,1,0,0,1,396.9,184Zm1.6,2.3c-.3-.8.6-.5,1.1-.6C399.6,186.24,399.2,186.34,398.5,186.34Zm8.5-6.2h-.6v-.6h.6Zm3.9-1.1c-.3,0-.2-.5-.3-.8C411.6,177.94,411.1,178.74,410.9,179Zm-3.4-3.4c.6-1.6,2.5-.9,3.7-.8C410.5,175.94,408.9,175.74,407.5,175.64Zm6.2-5.7c.1-.8,1.2.3,0,0Zm10.3-8.4v-.8C425,160.24,425,161.94,424,161.54ZM435.4,144c.2-.6.7-1,1.7-.8C437.1,144.14,436.3,144,435.4,144Zm3.4-4.5h-.6v-.6h.6Zm7.9-4.7c-.5,1.3-1.4.3,0,0Zm1.4-7.9c-.6.2-.4-.5-.8-.6,0-.3.5-.2.8-.3Zm.8-1.7h-.6v-.8c.5-.1.5.3.8.3C449.2,124.94,448.9,124.94,448.9,125.24Zm-3.1-60.5c1-.7-.6.9,0,0Zm1.4-.6c-.6-.4-.5-.6-.3-1.4.7.3,1,1.5.3,1.7C446.9,64.34,447.1,64.14,447.2,64.14Zm0,7.6c.2-1.1-.2,1.7,0,0Zm0-.8c.2-.4.2-1.1,1.1-.8C448.4,70.84,448,70.94,447.2,70.94Zm.3-8.2c.3-.7.5-1.6,1.4-1.7C448.4,61.54,448.7,62.94,447.5,62.74Zm1.7,10.1c.1-.8,1.2.3,0,0Zm1.1,5.4Zm.6-.3c-.2-.9.7-.6.8-1.1C452.6,77.24,451.5,78,450.9,77.94Zm.3,36.9c.1-.5.5-.6,1.1-.6C452.2,114.74,451.8,114.94,451.2,114.84Zm.3-14.9c.8,0-.3,1.8.8,1.4C451.4,102.14,451.1,100.74,451.5,99.94Zm.2-24.5c-.7-.1,0-1.1.6-.8C452.5,75.14,451.8,74.94,451.7,75.44Zm1.5,45c-.2-.1.1.2,0,0Zm.2-7.6c.1-.8,1.2.3,0,0Zm.3,4.8c1,.3-.2,1.2.6,1.7C453.7,120.24,453.2,117.84,453.7,117.64Zm2.5-6.8c-.7.1-1.2.5-1.7,0,.3-1.1,1.5-.7,2,0C456.5,111.24,456.2,111,456.2,110.84Zm-.2-1.1a.87.87,0,0,1,.8-.6A.7.7,0,0,1,456,109.74Zm.8-16c.2.1-.1-.2,0,0Z"/><path class="cls-1" d="M58.3,582.54c.1.2.3.2.5.4a.1.1,0,0,0-.1-.1H59v.3a9.56,9.56,0,0,0,4.7,2.8,25.33,25.33,0,0,0,7.8.9h5.9a2.18,2.18,0,0,0,.5-.8.75.75,0,0,1,.1.8H89a25.33,25.33,0,0,0,7.8-.9,10.55,10.55,0,0,0,5.2-3.4c1.4-1.6,1.9-3.6,2.5-6.1s.4-5.6.4-9.2v-22.6c-.2,0-.4.1-.6.1.2-.2.4-.3.6-.5V536c0-1.1.6-2.3-.3-2.3H98.1A2.56,2.56,0,0,0,96,536v30a41.36,41.36,0,0,1,0,5,6.69,6.69,0,0,1-1.1,3.1,4.52,4.52,0,0,1-2.4,1.5,14.74,14.74,0,0,1-3.8.2H71.9a15.26,15.26,0,0,1-3.9-.2,5.12,5.12,0,0,1-2.5-1.4,8.34,8.34,0,0,1-1.7-3.1,20.9,20.9,0,0,1-.8-5v-30c0-1.1.4-2.3-.5-2.3H55.9a2.38,2.38,0,0,0-1.9,2.3V554h0v13.2a38.8,38.8,0,0,0,1.2,9.2A14.69,14.69,0,0,0,58.3,582.54Zm45-4.1c.7-1.1.4.9,0,0Zm-.3-22.3c.9-.7-.7,1,0,0Zm-2,11.6c.9-.8-.7.8,0,0Zm.3-33.2c0,.6-1,.1-1.4.3C100.2,534.24,100.9,534,101.3,534.54Zm-3.9,13.7c-.2-.1.1.2,0,0Zm-.3,20c0-.8,1.2.3,0,0Zm.5,7.9a.87.87,0,0,1-.8.6C96.7,576.14,97.2,576.14,97.6,576.14ZM94.3,584Zm.2-3.1v.8h-.8C93.7,581.14,93.9,580.84,94.5,580.94Zm-1.4,4.2c.5-1,.9.9,0,0ZM92,586c1-.7-.7.9,0,0Zm-7.3-5.4c-.7.9-1.3-.8,0,0Zm-9.9,1.7Zm2-4.8c.7-1.1.4,1,0,0Zm-1.1-.3c.2.6-.5.4-.6.8C74.4,578,75.1,577,75.7,577.24Zm-1.7,2.3c-.1.8-1.5,2.3-1.7.6C73.4,580.44,73.1,579.44,74,579.54Zm-3.1,6.2c.3-.9,1.5.3,0,0Zm-1.4-7.9c.3.8-.6.5-1.1.6A1.15,1.15,0,0,1,69.5,577.84ZM66.1,586h-.8c0-.6.2-.9.8-.8Zm-1.4-8.8c.9-.7-.8.9,0,0Zm1.4,2.9c-.2.7-1.1.6-1.7.8A1.33,1.33,0,0,1,66.1,580.14ZM61.9,546c.1-.8,1.2.3,0,0Zm-.6-9.9c.1-.8,1.2.3,0,0Zm.6,37.2a.87.87,0,0,1-.8.6C60.9,573.34,61.5,573.34,61.9,573.34Zm-1.4-35.2c.7-1.1.4.9,0,0Zm-.6-3.4c.9-.7-.7.9,0,0Zm0,4Zm0,.8Zm.6.6c.1,1.1-.5,1.5-1.7,1.4A2.65,2.65,0,0,1,60.5,540.14Zm-3.1,39.4c.1-.9,1.2.3,0,0Zm-1.1-39.7c0-.8,1.1.3,0,0Zm-.3,14.9c.8.3,0,1.2-.8.8C55.1,554.94,56,555.34,56,554.74Zm-1.7,11.6c-.1-.2.2.1,0,0Zm1.7,3.1a1.48,1.48,0,0,1-1.7.8A1.48,1.48,0,0,1,56,569.44Z"/><path class="cls-1" d="M168.3,615c0-.1,0-.2.1-.2H144.3c.2.1.2.4-.4.2,0-.1,0-.2.1-.2H102.4a.52.52,0,0,1,.4.2c0,.6-1,.1-1.4.3,0-.3.2-.4.4-.5H0v2H46.1c.1-1,.8-2,.8,0H59.5a1.48,1.48,0,0,1,.7-.1v.1H195v-.9a.49.49,0,0,1-.3-.6.44.44,0,0,1,.3-.1v-.4H168.7C168.9,614.94,168.9,615.14,168.3,615Zm-141.6,1.4a.87.87,0,0,1,.8-.6C27.7,616.44,27.2,616.34,26.7,616.44Zm1.4-1.4a.31.31,0,0,1-.2.1l.4-.2C28.2,614.94,28.2,614.94,28.1,615Zm40.6.5c0-.8,1.1.3,0,0Zm38.5,1.1a.68.68,0,0,1,1.1-.6C108.3,616.64,107.9,616.74,107.2,616.64Zm13.2-1.4h0C120.5,615.34,120.5,615.24,120.4,615.24Zm38.6,1.4h-.6V616h.6Zm8.2-.8Z"/><path class="cls-1" d="M113.6,535.64c-.9,1.1-1.6,3.4-1.6,6.5v43.1c0,1.1.9,1.4,1.9,1.4h6.4c.9,0,.8-.3.8-1.4v-5c-.1-.1-.2-.2,0-.3v-34c0-.5.7-1.3,1.1-1.3h.5c.3,0,.5.5.8.8l19.7,32c.1-.2.4-.9.2-.9h.8c.2,1-.9.4-.8,1.1h0l2.9,4.6a19.83,19.83,0,0,0,1.6,2.4,5.54,5.54,0,0,0,1.4,1.3,4.25,4.25,0,0,0,1.7.5,15.52,15.52,0,0,0,2.3.1h3.3c.1-.1.2-.2.5,0h1.4c1.9,0,2.9-.4,3.7-1.5s.9-3,.9-6.1v-30.4h-.6c-.2,0,.2-.3.6-.4V536c0-1.1.3-2.3-.6-2.3h-6.4A2.56,2.56,0,0,0,154,536v39.2c0,.5.6.5.2.5h-.5a.81.81,0,0,1-.8-.4l-22.6-36.6c-.6-1-1.1-1.7-1.5-2.3a4.66,4.66,0,0,0-1.4-1.4,5.31,5.31,0,0,0-1.7-.8,13.27,13.27,0,0,0-2.4-.4H118A5.62,5.62,0,0,0,113.6,535.64Zm-.5,5.3Zm49.6,26.8c.2.2-.2-.1,0,0Zm-4.8,9.3c0-.9,1.2.2,0,0Zm3.1-23.7a.87.87,0,0,1-.8.6A.7.7,0,0,1,161,553.34Zm-.9,9.6c1.4-.1-2.2.1,0,0Zm-1.4-10.2c.1-.8,1.2.3,0,0Zm0,9.9c-.6.9-1.8-.3,0,0Zm-2.8-11.5c.7-1.1.4.9,0,0Zm0-11c.3-.9,1.5.3,0,0Zm0,9Zm-.6-2.8Zm-.5-11.6c0-.8,1.2.3,0,0Zm-8.4,38.9Zm-.3-.9c-.2-.1.1.2,0,0Zm-1.2,2.6c.1.9-.7,1-1.1.6C143.9,575.34,144.3,575.24,144.9,575.34Zm-3.1-16.6c-.1.7-1.2.2-1.4,0C140.5,558,141.7,558.54,141.8,558.74Zm-3.1,9.8Zm-.7-17.4.3.5c-.4.2-1.1-.1-1.5,0C136.8,551.14,137.4,551,138,551.14Zm.5,7.3c-.8.4-1.3,1-2.3,1.1C136.4,558.54,137.5,558.54,138.5,558.44ZM114,577.84a1.85,1.85,0,0,1-.2.7c0-.1.1-.3.2-.7Zm1.4-15.8Zm0-2.8c.3-.8,1.5.3,0,0Zm1.4,17.5c.3-.9,1.5.3,0,0Zm.8-18.6Zm1.5,22.3Zm-2-29.3c.2-.8.4-.3,1.1-.3C117.9,551.24,117.4,551.44,117.1,551.14Z"/><path class="cls-1" d="M.3,515h0a3.42,3.42,0,0,0,2.8,1.7h38a11.89,11.89,0,0,0,5.3-1.1,8.6,8.6,0,0,0,3-2.3c0,.1-.1.1-.1.2a1.5,1.5,0,0,0,.2-1,.27.27,0,0,1,.3.3h0a11.17,11.17,0,0,0,1.8-4.3,25.51,25.51,0,0,0,.4-5.7v-4.6c0-4.7-1.8-8.1-4.8-10.2,2.7-2.3,3.8-5.6,3.8-10.1v-3.8c0-4.4-.4-7.8-2.2-10s-4.4-3.4-8.8-3.4H3.1c-1.3,0-3.1,1.1-3.1,2.7v50.7a1.61,1.61,0,0,0,.3.9Zm48.9-40.5c-.1.5-.5.6-1.1.6C48.2,474.64,48.6,474.44,49.2,474.54ZM47.3,470c0-.8,1.1.3,0,0Zm1.1,36.3c-.2.4-.7.6-1.4.6C47,506.34,47.7,506.34,48.4,506.34Zm-32.1,4.8c.9-.7-.7.9,0,0Zm5.9,1.7c-.3-.8.6-.5,1.1-.6C23.3,512.74,22.9,512.94,22.2,512.84Zm8.4-2.7V510h0C30.7,510,30.6,510,30.6,510.14Zm1.2-2.4Zm3.1,2.3v-1.1a1.91,1.91,0,0,0,.8.3C35.8,509.74,35.5,510,34.9,510Zm1.4-1.7c-.2-.1-.3-.3-.6-.3.1-.2.3-.3.3-.6.2.1.3.3.6.3C36.5,507.94,36.3,508,36.3,508.34Zm5.7-7.6c0,1.7,0,3-.7,3.8a3.9,3.9,0,0,1-3.3,1.2H11.7c-.6,0-1.8-.5-1.8-1.2v-11.8H37.1a8.12,8.12,0,0,1,1.7.1,1.69,1.69,0,0,1,1.3-.3c0,.4-.1.5-.4.6a2.54,2.54,0,0,1,1.3.9c.8.8.8,2.1.8,3.7v3Zm-29.4-13.5c.7,1.2-1.4,2-2.5,2.3C10.7,488.44,11.9,488,12.6,487.24Zm-1.1-.9c.3-.8,1.5.3,0,0Zm28.2-2.2c.2.1.3.3.6.3C40.1,485,38.9,484.54,39.7,484.14Zm1.6,5.3c.9-.2.5.6.3.8C41.3,490.24,41.4,489.74,41.3,489.44Zm4.3-8.7c0,.9-.7,1-1.4,1.1C44,480.84,44.7,480.74,45.6,480.74Zm-.9,16.9c0,.8-1.4.5-1.4-.3C44.1,497.14,44.1,497.74,44.7,497.64Zm-5-27.3c.5-.1.4,1.3-.3.8C39.3,470.74,39.6,470.64,39.7,470.34ZM10,479.54V473c0-.7,1.2-1.3,1.8-1.3h1a.45.45,0,0,1,.5,0H38a4.06,4.06,0,0,1,3.3,1.3c.7.8.8,2.1.8,3.7v2.7c0,1.5,0,2.5-.8,3.3s-1.9,1-4,1H10.1v-3.6a.59.59,0,0,1-.2-.5A.1.1,0,0,1,10,479.54Zm.7,31.9c-.3.3-.1,1-.8.8C9.8,511.64,10.1,511.34,10.7,511.44Zm-1.4,5c-.2-.1.1.2,0,0Zm-.9-25.9c.9-.7-.8.9,0,0ZM7.3,492c.7-1.1.4.9,0,0Z"/><path class="cls-1" d="M355.7,222.94a2.2,2.2,0,0,1-.1.8h0a2.49,2.49,0,0,0,.1-.8Z"/><path class="cls-1" d="M300.5,175.84h0v0Z"/><path class="cls-1" d="M416.4,209.54c-.3-.1-.5-.1-.8-.2h0c.3.1.5.1.8.2Z"/><path class="cls-1" d="M319.5,193.74Z"/><path class="cls-1" d="M259.6,255.84Z"/><path class="cls-1" d="M259.5,255.64Z"/><path class="cls-1" d="M416.9,218.84a.37.37,0,0,1,.3.1.37.37,0,0,0-.3-.1Z"/><path class="cls-1" d="M395.9,214.14h0a.37.37,0,0,1-.3-.1A.37.37,0,0,1,395.9,214.14Z"/><path class="cls-1" d="M309.7,244c-.1.1-.1.2-.2.3.1-.1.2-.2.2-.3Z"/><path class="cls-1" d="M356.1,168.54Z"/><path class="cls-1" d="M366.9,176.64c.1.2.1.5.2.7a2.54,2.54,0,0,0-.2-.7Z"/><path class="cls-1" d="M338.4,77.54c.1.2.2.3.3.5h0c0-.1-.2-.3-.3-.5Z"/><path class="cls-1" d="M426.3,123.24v0Z"/><path class="cls-1" d="M401.1,117.74h1.1v-.2c-.4-.1-.7-.1-1.1-.2C401.1,117.54,401,117.64,401.1,117.74Z"/><path class="cls-1" d="M212.7,163.64h0v0Z"/><path class="cls-1" d="M310.1,521.24c.1-.1.3-.1.4-.2h0c-.1,0-.2.1-.4.2Z"/><path class="cls-1" d="M408.3,490.54l.2-.1Z"/><path class="cls-1" d="M441.6,117Z"/><polygon class="cls-1" points="373.2 512.34 373.8 511.94 373.8 511.94 373.2 512.34"/><polygon class="cls-1" points="397.4 497.34 397.6 497.24 397.6 497.24 397.4 497.34"/><path class="cls-1" d="M294.9,602.44a3.18,3.18,0,0,0-.9-.3h0Z"/><path class="cls-1" d="M393.9,518.24l-.3.2Z"/><path class="cls-1" d="M220.2,122.74v-.1h0c.1,0,0,0,0,.1Z"/><path class="cls-1" d="M320.8,626.54l.1-.1h0a.1.1,0,0,0-.1.1Z"/><path class="cls-1" d="M321.7,52.24Z"/><path class="cls-1" d="M129.8,213.44h0Z"/><path class="cls-1" d="M433.2,155.94c0-.1.1-.1,0,0,.1-.1,0-.1,0,0Z"/><path class="cls-1" d="M177.9,344.74Z"/><path class="cls-1" d="M383.4,129.44c.2.2.5.4.7.6a4.35,4.35,0,0,1-.7-.6Z"/><path class="cls-1" d="M388.6,136.54c0,.1,0,.1.1.2-.1,0-.1-.1-.1-.2Z"/><path class="cls-1" d="M388.8,137.34h0c0-.1,0-.2-.1-.2A.35.35,0,0,1,388.8,137.34Z"/><path class="cls-1" d="M437.1,139.74c-.2.3-.4.5-.6.8h0a2.1,2.1,0,0,0,.6-.8Z"/><polygon class="cls-1" points="106.9 235.14 106.1 235.34 106.1 235.34 106.9 235.14"/><path class="cls-1" d="M457.7,108.64Z"/><path class="cls-1" d="M436.8,214.64c-.1,0-.2-.1-.3-.1a.37.37,0,0,1,.3.1Z"/><path class="cls-1" d="M275,473.94v0Z"/><path class="cls-1" d="M209.5,511h0Z"/><path class="cls-1" d="M206.4,507.24l.1.2Z"/><path class="cls-1" d="M349.1,448.34h0v0Z"/><polygon class="cls-1" points="213.3 478.54 213.3 478.54 212.7 479.14 213.3 478.54"/><path class="cls-1" d="M214.1,477.64l.4-.5Z"/><polygon class="cls-1" points="207.2 485.54 207.2 485.54 207 485.74 207.2 485.54"/><path class="cls-1" d="M389.3,125.94l-.6-.6h0l.6.6Z"/><path class="cls-1" d="M408.3,63a1.27,1.27,0,0,0,.1.6h0a1.27,1.27,0,0,0-.1-.6Z"/><path class="cls-1" d="M384.5,122.24Z"/><path class="cls-1" d="M425.3,140.54Z"/><path class="cls-1" d="M426.3,140.14Z"/><path class="cls-1" d="M440.5,134.64c-.2.3-.3.5-.5.8h0a3.51,3.51,0,0,0,.5-.8Z"/><path class="cls-1" d="M279.1,80Z"/><path class="cls-1" d="M343.9,73.94Z"/><path class="cls-1" d="M343.7,73.54l.3.3h0l-.3-.3Z"/><polygon class="cls-1" points="405.7 492.24 406.8 491.54 406.8 491.54 405.7 492.24"/><path class="cls-1" d="M457.4,95.24Z"/><path class="cls-1" d="M457.4,95.84Z"/><path class="cls-1" d="M113,496.54v-.2h0v.2Z"/><polygon class="cls-1" points="143.1 577.64 143.2 577.84 143.2 577.84 143.1 577.64"/><path class="cls-1" d="M58.8,583Z"/><path class="cls-1" d="M306.2,545h0a1.27,1.27,0,0,0-.6-.1h0C305.9,544.94,306,545,306.2,545Z"/><path class="cls-1" d="M350.5,517.94c-.1.3-.1.5-.2.8h0a2.35,2.35,0,0,0,.2-.8Z"/><polygon class="cls-1" points="353.8 542.94 353.8 542.94 353.8 542.94 353.8 542.94"/><path class="cls-1" d="M442.3,115Z"/><path class="cls-1" d="M415.6,20.34Z"/><path class="cls-1" d="M310.9,520.84Z"/><path class="cls-1" d="M315.8,578.44Z"/><path class="cls-1" d="M348,455.94c0,.2-.1.4-.1.6h0a1.27,1.27,0,0,1,.1-.6Z"/><path class="cls-1" d="M122.2,163.24v.6h0v-.6Z"/><path class="cls-1" d="M.2,515Z"/><path class="cls-1" d="M97.5,212.34c-.1,0-.1,0-.2.1h0a.31.31,0,0,1,.2-.1Z"/><path class="cls-1" d="M127.5,190.74a.1.1,0,0,0,.1.1h0c0-.1,0-.1-.1-.1Z"/><path class="cls-1" d="M147.2,90.94v.5h0c-.1-.1,0-.3,0-.5Z"/><path class="cls-1" d="M143.2,145.54c0,.4-.1.8-.1,1.3h0a5.28,5.28,0,0,1,.1-1.3Z"/><path class="cls-1" d="M348.9,488.34a.37.37,0,0,0,.1-.3c0,.1-.1.2-.1.3Z"/><path class="cls-1" d="M319.6,627.64Z"/><polygon class="cls-1" points="392.3 530.14 392.3 530.14 392 530.24 392.3 530.14"/><path class="cls-1" d="M320.9,90.24c.1,0,.3.1.4.1C321.1,90.34,321,90.24,320.9,90.24Z"/><path class="cls-1" d="M195.2,170Z"/><path class="cls-1" d="M236.6,191.34Z"/><path class="cls-1" d="M416,32.34h0l-.1-.1Z"/><path class="cls-1" d="M120.1,215.64h0c-.1,0-.2,0-.2.1A.35.35,0,0,1,120.1,215.64Z"/><path class="cls-1" d="M99.1,220.94c.2-.1.5-.1.7-.2h0a6.37,6.37,0,0,1-.7.2Z"/><path class="cls-1" d="M129,164.34v-.6h0a.64.64,0,0,0,0,.6Z"/><path class="cls-1" d="M130.6,152.74Z"/><path class="cls-1" d="M280.1,545.34h0c0,.1-.1.1-.1.2C280,545.44,280,545.44,280.1,545.34Z"/><path class="cls-1" d="M311.7,586.74h0Z"/><path class="cls-1" d="M308.2,559.14a.76.76,0,0,0,.2-.4c0,.1-.1.2-.2.4Z"/><path class="cls-1" d="M308.4,533.94h0Z"/><path class="cls-1" d="M225.1,601.94h0Z"/><path class="cls-1" d="M420.7,116.74v0Z"/><path class="cls-1" d="M438,149.74Z"/><path class="cls-1" d="M430.9,148.24h0a1.76,1.76,0,0,1,.4-.5C431.1,147.94,431,148.14,430.9,148.24Z"/><path class="cls-1" d="M373.8,224.34Z"/><path class="cls-1" d="M435.1,214.14c-.2,0-.4-.1-.6-.1h0c.3,0,.4.1.6.1Z"/><path class="cls-1" d="M432.6,213.54c-.3-.1-.6-.1-.9-.2h0a2.39,2.39,0,0,1,.9.2Z"/><path class="cls-1" d="M392.4,155.54Z"/><path class="cls-1" d="M59.1,497.94Z"/><path class="cls-1" d="M49.8,512.84h0c-.1.2-.3.3-.4.5A1,1,0,0,0,49.8,512.84Z"/><path class="cls-1" d="M134,473.94h0a2.65,2.65,0,0,1,.6-.5h0A2.65,2.65,0,0,1,134,473.94Z"/><path class="cls-1" d="M118,414.84a.75.75,0,0,1,.5.1h0a1.09,1.09,0,0,1-.5-.1Z"/><path class="cls-1" d="M367.1,122.44Z"/><path class="cls-1" d="M154.8,213.24c.1,0,.1.1.2.1-.1,0-.1-.1-.2-.1Z"/><path class="cls-1" d="M163.3,221.74Z"/><path class="cls-1" d="M39.9,493.14h0a2.92,2.92,0,0,0-.9-.2h0A2.92,2.92,0,0,1,39.9,493.14Z"/><polygon class="cls-1" points="250.4 625.64 239.9 625.64 239.9 602.94 236.6 602.94 236.6 628.64 250.4 628.64 250.4 625.64"/><path class="cls-1" d="M301.1,615.44a17.27,17.27,0,0,0-.7-5.4,10.93,10.93,0,0,0-1.9-3.9,7.88,7.88,0,0,0-3.1-2.3,10.7,10.7,0,0,0-4.1-.8h-8v25.6h8a10.7,10.7,0,0,0,4.1-.8,9.26,9.26,0,0,0,3.1-2.5,12,12,0,0,0,1.9-4.1A21,21,0,0,0,301.1,615.44Zm-17.4-1.2c.1-.9,1.2.2,0,0Zm.3,2.8c.1-.9,1.2.2,0,0Zm.9,1.1c-.7-.2-.1-1.4.6-1.1C285.6,617.74,284.9,617.54,284.9,618.14Zm12.8-1.8a16.42,16.42,0,0,1-.5,4.1,9.75,9.75,0,0,1-1.3,2.9,5.65,5.65,0,0,1-2.1,1.7,6,6,0,0,1-2.7.6h-4.4v-4.1c-.1,0-.1,0,0-.1v-11.1h-.2a.22.22,0,0,1,.2-.2V606h4.4a7.64,7.64,0,0,1,2.7.5,6.52,6.52,0,0,1,2.1,1.6,6.81,6.81,0,0,1,1.3,2.7,13.8,13.8,0,0,1,.5,3.7Z"/><path class="cls-1" d="M257,602.94h-3.3v25.6H257Zm-2.1,23.3c0-.8,1.2.3,0,0Zm.8-10.1a.87.87,0,0,1,.8-.6A.7.7,0,0,1,255.7,616.14Z"/><path class="cls-1" d="M231.6,617.64a6.2,6.2,0,0,0-1.4-1.4,6.08,6.08,0,0,0-1.8-.9v-.1a7.15,7.15,0,0,0,1.5-.8,4.89,4.89,0,0,0,1.2-1.3,5.31,5.31,0,0,0,.8-1.7,6.65,6.65,0,0,0,.3-2.1,7.51,7.51,0,0,0-.5-2.6,5.58,5.58,0,0,0-1.4-2,6.39,6.39,0,0,0-4.7-1.7h-9.7v3.2c.4-.4,1.1-.2,1.3.5,0,.5-.8.3-1.3.3v21.7h9.7a8.68,8.68,0,0,0,2.8-.5,6.4,6.4,0,0,0,4.5-6.3,8.52,8.52,0,0,0-.3-2.3A4.69,4.69,0,0,0,231.6,617.64Zm-6.7-13.5c-.3.5-.5,1-1.4.8A1.68,1.68,0,0,1,224.9,604.14Zm-3.3.5a.87.87,0,0,1-.8.6C220.6,604.64,221.1,604.74,221.6,604.64Zm-3.1,2.6a.76.76,0,0,1,.8-.6v-.7h.8l.1-.1c.5-.4.3-.1,0,.1H225a3.7,3.7,0,0,1,2.8,1,4.08,4.08,0,0,1,1.1,3,4.53,4.53,0,0,1-.3,1.6,5.67,5.67,0,0,1-.8,1.3,3.81,3.81,0,0,1-1.3.9,4.67,4.67,0,0,1-1.7.3h-5.5v-6.9A2,2,0,0,1,218.5,607.24Zm10.7,15.9a3,3,0,0,1-.9,1.3,3.53,3.53,0,0,1-1.3.8,4.67,4.67,0,0,1-1.7.3h-6v-8.6h4.5c.1-.5.6-.2.5,0h.8a3.42,3.42,0,0,1,1.8.4,4.51,4.51,0,0,1,1.4,1,4.19,4.19,0,0,1,.9,1.4,5,5,0,0,1,0,3.4Z"/><path class="cls-1" d="M279.1,602.94h-3V621a7.09,7.09,0,0,0,.1,1.4h-.1c-.2-.5-.4-.9-.6-1.3s-.3-.7-.5-1.1a9.29,9.29,0,0,0-.5-1l-9.5-16.1h-2.8V609c.2,0,.5.1.8.1.1.7-.3.9-.8.8v18.6h3v-17.3a3.75,3.75,0,0,0-.1-1.1,6.15,6.15,0,0,0-.1-1.3h.1c.2.5.4.9.6,1.3s.3.7.5,1.1a9.25,9.25,0,0,1,.5,1l9.6,16.3H279v-25.6Zm-15.5,14.9c.3-.8,1.5.3,0,0Zm.8,7.3h-.6v-.6h.6Zm4.2-11.2c.1-.4.7-.2,1.1-.3C269.7,614.34,269,614.34,268.6,613.94Zm1.4,1.7c.1-.9,1.2.2,0,0Z"/><path class="cls-1" d="M319,627.24a5.46,5.46,0,0,0,1.8-2.4,9.61,9.61,0,0,0,.7-3.6,5.81,5.81,0,0,0-.6-2.8,7.49,7.49,0,0,0-1.5-2l-.1-.1a1.85,1.85,0,0,1-.7.2c-.1-.4,0-.5.1-.6a6.38,6.38,0,0,0-1.4-.8,11.72,11.72,0,0,0-2.4-.9,22.5,22.5,0,0,0-2.4-.8c-.4-.1-.8-.3-1.2-.4l-.2.2c0-.1.1-.1.2-.2-.3-.2-.7-.3-1-.5a6.39,6.39,0,0,1-1.5-1.3,2.88,2.88,0,0,1-.6-1.9,2.73,2.73,0,0,1,.4-1.6,2.66,2.66,0,0,1,1-1.1,5.23,5.23,0,0,1,1.5-.7,11.08,11.08,0,0,1,1.9-.2,5.66,5.66,0,0,1,1.8.3,4.35,4.35,0,0,1,1.5.8,4.48,4.48,0,0,1,1,1.3,4.71,4.71,0,0,1,.4,1.7v.5h2.8c-.1-.4.2-.8.6-1.1v-.4a.66.66,0,0,0-.4.5c-.3-.2-.1-.6.3-1a8.45,8.45,0,0,0-.5-1.7,5.43,5.43,0,0,0-1.7-2.2,7.07,7.07,0,0,0-2.6-1.3,10.55,10.55,0,0,0-3.1-.4,11.76,11.76,0,0,0-2.7.3c-.1.2-.4.2-.7.2a5.61,5.61,0,0,0-2.3,1.2l-.3.3v.2h-.2a6.1,6.1,0,0,0-1.2,1.6,7.45,7.45,0,0,0-.6,3.1,6.26,6.26,0,0,0,2.1,4.9,7.43,7.43,0,0,0,2.1,1.3,11.72,11.72,0,0,0,2.4.9,22.5,22.5,0,0,0,2.4.8,6.81,6.81,0,0,1,2.1,1,5,5,0,0,1,1.5,1.4,2.17,2.17,0,0,1,.5,1.4c.2-.1.3-.1.5-.2l-.5.5v.4a4,4,0,0,1-1.4,3.2,6.56,6.56,0,0,1-4,1.1,2.77,2.77,0,0,1-.9-.1,1.47,1.47,0,0,0-1,.9,1.08,1.08,0,0,1,0-1.1h0a4.37,4.37,0,0,1-2.7-2.4,4.64,4.64,0,0,1-.4-2.1v-.7h-3.4v.7a8,8,0,0,0,.7,3.6,6.54,6.54,0,0,0,1.9,2.4,8.45,8.45,0,0,0,2.7,1.3,11.94,11.94,0,0,0,3.3.4,12.2,12.2,0,0,0,3.4-.4A8.69,8.69,0,0,0,319,627.24ZM316.8,606c.5-.9.9,1,0,0Zm-5.6,9.3Z"/></g></g></svg>