<svg xmlns="http://www.w3.org/2000/svg" viewBox="0 0 244.18 244.18"><defs><style>.cls-1{fill:#fe8e1e;}</style></defs><title>buckhunterblinds-node-</title><g id="Layer_2" data-name="Layer 2"><g id="Layer_1-2" data-name="Layer 1"><path class="cls-1" d="M244.18,115H221.12a99.58,99.58,0,0,0-92-92V0H115V23.06a99.58,99.58,0,0,0-92,92H0v14.11H23.06a99.58,99.58,0,0,0,92,92v23.06h14.11V221.12a99.58,99.58,0,0,0,92-92h23.06Zm-115,92V187.48H115V207a85.32,85.32,0,0,1-77.87-77.87H56.7V115H37.17A85.32,85.32,0,0,1,115,37.17V56.7h14.11V37.17A85.32,85.32,0,0,1,207,115H187.48v14.11H207A85.32,85.32,0,0,1,129.15,207Z"/><path class="cls-1" d="M122.09,81.39a40.7,40.7,0,1,0,40.7,40.7,40.64,40.64,0,0,0-40.7-40.7Z"/></g></g></svg>